<?xml version="1.0" encoding="UTF-8"?>
<svg id="Layer_2" data-name="Layer 2" xmlns="http://www.w3.org/2000/svg" viewBox="0 0 611.88 174.36">
  <defs>
    <style>
      .cls-1 {
        fill: #231f20;
        stroke-width: 0px;
      }
    </style>
  </defs>
  <g id="Layer_1-2" data-name="Layer 1">
    <g>
      <path class="cls-1" d="M27.54,48.9c-1.28,3.52-3.28,5.92-6,7.2-2.12,1-5.28,1.5-9.48,1.5H0l2.58-7.38h1.2c3,0,4.72-.64,5.16-1.92L22.92,10.26h18.72l-14.1,38.64ZM23.76,7.62l2.82-7.62h18.78l-2.82,7.62h-18.78Z"/>
      <path class="cls-1" d="M33.84,39.48l7.5-20.64c1.24-3.44,3.28-5.8,6.12-7.08,2.2-1,5.38-1.5,9.54-1.5h18.42c6.72,0,10.08,1.56,10.08,4.68,0,1.08-.28,2.38-.84,3.9l-7.5,20.64c-1.28,3.48-3.28,5.86-6,7.14-2.04.92-5.2,1.38-9.48,1.38h-18.42c-4.72,0-7.74-.62-9.06-1.86-.76-.68-1.14-1.66-1.14-2.94,0-1.12.26-2.36.78-3.72ZM59.76,20.39l-6.36,17.48c-.12.4-.18.74-.18,1.02,0,1.08.62,1.66,1.86,1.74,1.68.12,2.88-.8,3.6-2.75l6.42-17.48c.16-.44.24-.82.24-1.14,0-1.16-.6-1.74-1.8-1.74-1.8,0-3.06.96-3.78,2.87Z"/>
      <path class="cls-1" d="M133.8,10.26l-13.74,37.8h-18.36l.84-2.34c-.16.08-1.32.44-3.48,1.08-3.36,1.04-6.38,1.56-9.06,1.56-4.44,0-7.34-.94-8.7-2.82-.84-.92-1.26-2.14-1.26-3.66,0-1.4.3-2.92.9-4.56l9.84-27.06h18.78l-9.48,26.28c-.36,1-.44,1.76-.24,2.28.2.48.76.72,1.68.72,1.8,0,3.04-.94,3.72-2.82l9.54-26.46h19.02Z"/>
      <path class="cls-1" d="M123.12,48l13.68-37.74h18.24l-.72,2.28c3.12-1.24,5.76-2,7.92-2.28,1.24-.16,2.56-.24,3.96-.24,4.2,0,6.96.94,8.28,2.82.84,1.24,1.26,2.48,1.26,3.72,0,1.36-.3,2.86-.9,4.5l-1.5,4.14h-17.88l1.26-3.48c.24-.8.36-1.28.36-1.44-.12-.96-.76-1.44-1.92-1.44-1.8,0-3.04.96-3.72,2.88l-9.54,26.28h-18.78Z"/>
      <path class="cls-1" d="M165.24,48l13.68-37.74h18.24l-.84,2.4c4.52-1.76,8.7-2.64,12.54-2.64,6.64,0,9.96,2.26,9.96,6.78,0,1.36-.28,2.82-.84,4.38l-9.78,26.82h-18.78l9.54-26.28c.2-.6.32-1.08.36-1.44,0-.28-.1-.54-.3-.78-.24-.44-.78-.66-1.62-.66-1.88,0-3.16.96-3.84,2.88l-9.54,26.28h-18.78Z"/>
      <path class="cls-1" d="M225.9,27.12l18-5.1c.68-1.64,1.02-2.8,1.02-3.48,0-.8-.74-1.2-2.22-1.2-1.8,0-3.08,1-3.84,3l-.42,1.32h-18.42l1.08-2.88c1.32-3.4,3.38-5.74,6.18-7.02,2.2-1,5.36-1.5,9.48-1.5h17.7c2.88,0,5.02.2,6.42.6,2.56.72,3.84,2.16,3.84,4.32,0,.96-.28,2.18-.84,3.66l-10.62,29.16h-18.24l.84-2.28c-4.28,1.72-8.5,2.58-12.66,2.58s-7.22-.92-8.58-2.76c-.8-1.12-1.24-2.42-1.32-3.9-.2-2.4.46-4.84,1.98-7.32,1.16-1.96,2.45-3.43,3.87-4.41,1.42-.98,3.67-1.91,6.75-2.79ZM238.63,37.21l2.08-5.8-2.87.81c-2.29.64-3.88,1.9-4.75,3.78-.43,1.12-.65,2.04-.65,2.76,0,.96.71,1.44,2.14,1.44,1.98,0,3.33-1,4.05-2.99Z"/>
      <path class="cls-1" d="M256.2,48L273.66,0h18.78l-17.46,48h-18.78Z"/>
      <path class="cls-1" d="M277.86,48l13.74-37.74h18.78l-13.74,37.74h-18.78ZM292.56,7.62l2.76-7.62h18.78l-2.76,7.62h-18.78Z"/>
      <path class="cls-1" d="M299.76,48l13.68-37.74h18.24l-.84,2.4c4.52-1.76,8.7-2.64,12.54-2.64,6.64,0,9.96,2.26,9.96,6.78,0,1.36-.28,2.82-.84,4.38l-9.78,26.82h-18.78l9.54-26.28c.2-.6.32-1.08.36-1.44,0-.28-.1-.54-.3-.78-.24-.44-.78-.66-1.62-.66-1.88,0-3.16.96-3.84,2.88l-9.54,26.28h-18.78Z"/>
      <path class="cls-1" d="M402.24,10.26l-14.1,38.82c-1.24,3.4-3.3,5.78-6.18,7.14-2.2,1-5.36,1.5-9.48,1.5h-28.5l2.58-7.2h17.7c2.96,0,4.68-.68,5.16-2.04l1.02-2.58c-4.04,1.6-8.06,2.4-12.06,2.4-6.6,0-9.9-2.22-9.9-6.66,0-1.4.3-2.88.9-4.44l5.76-16.14c2.64-7.36,8.34-11.04,17.1-11.04,4.32,0,7.94.92,10.86,2.76l.96-2.52h18.18ZM373.86,36.66l5.4-14.94c.2-.56.3-1.04.3-1.44,0-.96-.64-1.44-1.92-1.44-1.8,0-3.04.96-3.72,2.88l-5.34,14.88c-.16.4-.24.78-.24,1.14,0,1.16.64,1.74,1.92,1.74,1.68,0,2.88-.94,3.6-2.82Z"/>
      <path class="cls-1" d="M9,102.48l7.5-20.64c1.24-3.44,3.28-5.8,6.12-7.08,2.2-1,5.38-1.5,9.54-1.5h18.42c6.72,0,10.08,1.56,10.08,4.68,0,1.08-.28,2.38-.84,3.9l-7.5,20.64c-1.28,3.48-3.28,5.86-6,7.14-2.04.92-5.2,1.38-9.48,1.38h-18.42c-4.72,0-7.74-.62-9.06-1.86-.76-.68-1.14-1.66-1.14-2.94,0-1.12.26-2.36.78-3.72ZM34.92,83.39l-6.36,17.48c-.12.4-.18.74-.18,1.02,0,1.08.62,1.66,1.86,1.74,1.68.12,2.88-.8,3.6-2.75l6.42-17.48c.16-.44.24-.82.24-1.14,0-1.16-.6-1.74-1.8-1.74-1.8,0-3.06.96-3.78,2.87Z"/>
      <path class="cls-1" d="M108.96,73.26l-13.74,37.8h-18.36l.84-2.34c-.16.08-1.32.44-3.48,1.08-3.36,1.04-6.38,1.56-9.06,1.56-4.44,0-7.34-.94-8.7-2.82-.84-.92-1.26-2.14-1.26-3.66,0-1.4.3-2.92.9-4.56l9.84-27.06h18.78l-9.48,26.28c-.36,1-.44,1.76-.24,2.28.2.48.76.72,1.68.72,1.8,0,3.04-.94,3.72-2.82l9.54-26.46h19.02Z"/>
      <path class="cls-1" d="M113.4,80.64h-4.98l2.64-7.38h4.98l3.72-10.26h18.84l-3.78,10.26h7.8l-2.58,7.38h-7.86l-7.56,20.65c-.36,1-.3,1.65.18,1.97.36.24,1.48.36,3.36.36h3.42l-2.64,7.38h-14.34c-4.64,0-7.62-.64-8.94-1.92-.72-.72-1.08-1.64-1.08-2.75,0-1,.3-2.32.9-3.95l7.92-21.74Z"/>
      <path class="cls-1" d="M171.36,63h18.9l-17.58,48h-18.3l.9-2.4c-4.04,1.8-8.3,2.7-12.78,2.7-6.72,0-10.08-2.22-10.08-6.66,0-1.28.3-2.74.9-4.38l6-16.26c2.72-7.4,8.44-11.1,17.16-11.1,2.08,0,3.96.18,5.64.54,1.2.28,2.78.9,4.74,1.86l4.5-12.3ZM157.98,99.6l5.46-14.88c.24-.68.36-1.18.36-1.5s-.1-.58-.3-.78c-.24-.52-.8-.78-1.68-.78-1.64,0-2.84,1.02-3.6,3.06l-5.46,14.88c-.2.72-.3,1.22-.3,1.5,0,.92.58,1.38,1.74,1.38,1.84,0,3.1-.96,3.78-2.88Z"/>
      <path class="cls-1" d="M178.68,102.48l7.5-20.64c1.24-3.44,3.28-5.8,6.12-7.08,2.2-1,5.38-1.5,9.54-1.5h18.42c6.72,0,10.08,1.56,10.08,4.68,0,1.08-.28,2.38-.84,3.9l-7.5,20.64c-1.28,3.48-3.28,5.86-6,7.14-2.04.92-5.2,1.38-9.48,1.38h-18.42c-4.72,0-7.74-.62-9.06-1.86-.76-.68-1.14-1.66-1.14-2.94,0-1.12.26-2.36.78-3.72ZM204.6,83.39l-6.36,17.48c-.12.4-.18.74-.18,1.02,0,1.08.62,1.66,1.86,1.74,1.68.12,2.88-.8,3.6-2.75l6.42-17.48c.16-.44.24-.82.24-1.14,0-1.16-.6-1.74-1.8-1.74-1.8,0-3.06.96-3.78,2.87Z"/>
      <path class="cls-1" d="M225.66,102.48l7.5-20.64c1.24-3.44,3.28-5.8,6.12-7.08,2.2-1,5.38-1.5,9.54-1.5h18.42c6.72,0,10.08,1.56,10.08,4.68,0,1.08-.28,2.38-.84,3.9l-7.5,20.64c-1.28,3.48-3.28,5.86-6,7.14-2.04.92-5.2,1.38-9.48,1.38h-18.42c-4.72,0-7.74-.62-9.06-1.86-.76-.68-1.14-1.66-1.14-2.94,0-1.12.26-2.36.78-3.72ZM251.58,83.39l-6.36,17.48c-.12.4-.18.74-.18,1.02,0,1.08.62,1.66,1.86,1.74,1.68.12,2.88-.8,3.6-2.75l6.42-17.48c.16-.44.24-.82.24-1.14,0-1.16-.6-1.74-1.8-1.74-1.8,0-3.06.96-3.78,2.87Z"/>
      <path class="cls-1" d="M268.74,111l13.68-37.74h18.24l-.72,2.28c3.12-1.24,5.76-2,7.92-2.28,1.24-.16,2.56-.24,3.96-.24,4.2,0,6.96.94,8.28,2.82.84,1.24,1.26,2.48,1.26,3.72,0,1.36-.3,2.86-.9,4.5l-1.5,4.14h-17.88l1.26-3.48c.24-.8.36-1.28.36-1.44-.12-.96-.76-1.44-1.92-1.44-1.8,0-3.04.96-3.72,2.88l-9.54,26.28h-18.78Z"/>
      <path class="cls-1" d="M356.52,102.3c-1.36,3.6-3.42,6.04-6.18,7.32-2.08.92-5.24,1.38-9.48,1.38h-18.54c-4.64,0-7.62-.6-8.94-1.8-.76-.72-1.14-1.72-1.14-3,0-1.12.26-2.36.78-3.72l1.68-4.74h19.02l-1.14,3.09c-.16.52-.24.99-.24,1.43,0,.91.6,1.37,1.8,1.37,1.04,0,1.83-.15,2.37-.45.54-.3.97-.99,1.29-2.07.44-1.48.66-2.28.66-2.4,0-.56-.14-.96-.42-1.2-.52-.52-1.48-.98-2.88-1.38l-9.78-2.81c-3.12-.88-5.04-1.86-5.76-2.93-.44-.64-.66-1.34-.66-2.1,0-.72.22-1.7.66-2.93l1.26-3.53c1.2-3.39,3.24-5.75,6.12-7.07,2.24-1,5.38-1.5,9.42-1.5h18.18c6.72,0,10.08,1.56,10.08,4.68,0,1-.28,2.3-.84,3.9l-.9,2.52h-18.72c.4-1.28.6-2.04.6-2.28,0-.28-.06-.54-.18-.78-.32-.52-.9-.78-1.74-.78-2.04,0-3.2.72-3.48,2.16-.2.92-.1,1.59.3,2.01.4.42,1.64.93,3.72,1.53l7.44,2.1c4.12,1.2,6.47,2.37,7.05,3.51.58,1.14.87,1.93.87,2.37,0,1.32-.22,2.56-.66,3.72l-1.62,4.38Z"/>
      <path class="cls-1" d="M425.58,73.26l-2.16,16.5,9.9-16.5h18.12l-24.78,37.74h-17.22l2.1-17.73-10.72,17.73h-17.18l2.52-37.74h18.06l-2.04,16.5,9.78-16.5h13.62Z"/>
      <path class="cls-1" d="M441.18,102.48l7.5-20.64c1.24-3.44,3.28-5.8,6.12-7.08,2.2-1,5.38-1.5,9.54-1.5h18.42c6.72,0,10.08,1.56,10.08,4.68,0,1.08-.28,2.38-.84,3.9l-7.5,20.64c-1.28,3.48-3.28,5.86-6,7.14-2.04.92-5.2,1.38-9.48,1.38h-18.42c-4.72,0-7.74-.62-9.06-1.86-.76-.68-1.14-1.66-1.14-2.94,0-1.12.26-2.36.78-3.72ZM467.1,83.39l-6.36,17.48c-.12.4-.18.74-.18,1.02,0,1.08.62,1.66,1.86,1.74,1.68.12,2.88-.8,3.6-2.75l6.42-17.48c.16-.44.24-.82.24-1.14,0-1.16-.6-1.74-1.8-1.74-1.8,0-3.06.96-3.78,2.87Z"/>
      <path class="cls-1" d="M541.14,73.26l-13.74,37.8h-18.36l.84-2.34c-.16.08-1.32.44-3.48,1.08-3.36,1.04-6.38,1.56-9.06,1.56-4.44,0-7.34-.94-8.7-2.82-.84-.92-1.26-2.14-1.26-3.66,0-1.4.3-2.92.9-4.56l9.84-27.06h18.78l-9.48,26.28c-.36,1-.44,1.76-.24,2.28.2.48.76.72,1.68.72,1.8,0,3.04-.94,3.72-2.82l9.54-26.46h19.02Z"/>
      <path class="cls-1" d="M530.46,111l17.46-48h18.78l-17.46,48h-18.78Z"/>
      <path class="cls-1" d="M592.98,63h18.9l-17.58,48h-18.3l.9-2.4c-4.04,1.8-8.3,2.7-12.78,2.7-6.72,0-10.08-2.22-10.08-6.66,0-1.28.3-2.74.9-4.38l6-16.26c2.72-7.4,8.44-11.1,17.16-11.1,2.08,0,3.96.18,5.64.54,1.2.28,2.78.9,4.74,1.86l4.5-12.3ZM579.6,99.6l5.46-14.88c.24-.68.36-1.18.36-1.5s-.1-.58-.3-.78c-.24-.52-.8-.78-1.68-.78-1.64,0-2.84,1.02-3.6,3.06l-5.46,14.88c-.2.72-.3,1.22-.3,1.5,0,.92.58,1.38,1.74,1.38,1.84,0,3.1-.96,3.78-2.88Z"/>
      <path class="cls-1" d="M52.32,165.48c-1.28,3.4-3.32,5.74-6.12,7.02-2.16,1-5.32,1.5-9.48,1.5h-18.42c-4.56,0-7.58-.64-9.06-1.92-.68-.52-1.02-1.44-1.02-2.76,0-1.2.26-2.48.78-3.84l7.56-20.7c1.28-3.44,3.28-5.8,6-7.08,2.08-.96,5.24-1.44,9.48-1.44h18.48c2.88,0,5,.2,6.36.6,2.52.72,3.78,2.16,3.78,4.32,0,1.08-.24,2.28-.72,3.6l-2.28,5.88h-19.08l1.56-4.26c.16-.52.24-.96.24-1.32,0-1.04-.6-1.56-1.8-1.56-.96,0-1.7.22-2.22.66-.68.44-1.2,1.18-1.56,2.21l-6.3,17.48c-.16.36-.24.72-.24,1.08,0,1.08.62,1.64,1.86,1.68,1.76.08,3-.83,3.72-2.74l2.28-6.14h19.08l-2.88,7.74Z"/>
      <path class="cls-1" d="M108.96,136.26l-13.74,37.8h-18.36l.84-2.34c-.16.08-1.32.44-3.48,1.08-3.36,1.04-6.38,1.56-9.06,1.56-4.44,0-7.34-.94-8.7-2.82-.84-.92-1.26-2.14-1.26-3.66,0-1.4.3-2.92.9-4.56l9.84-27.06h18.78l-9.48,26.28c-.36,1-.44,1.76-.24,2.28.2.48.76.72,1.68.72,1.8,0,3.04-.94,3.72-2.82l9.54-26.46h19.02Z"/>
      <path class="cls-1" d="M98.28,174l13.68-37.74h18.24l-.72,2.28c3.12-1.24,5.76-2,7.92-2.28,1.24-.16,2.56-.24,3.96-.24,4.2,0,6.96.94,8.28,2.82.84,1.24,1.26,2.48,1.26,3.72,0,1.36-.3,2.86-.9,4.5l-1.5,4.14h-17.88l1.26-3.48c.24-.8.36-1.28.36-1.44-.12-.96-.76-1.44-1.92-1.44-1.8,0-3.04.96-3.72,2.88l-9.54,26.28h-18.78Z"/>
      <path class="cls-1" d="M188.94,159.12l-2.34,6.36c-1.28,3.48-3.3,5.84-6.06,7.08-2.16.96-5.34,1.44-9.54,1.44h-18.42c-4.68,0-7.7-.6-9.06-1.8-.68-.64-1.02-1.6-1.02-2.88,0-1.2.26-2.48.78-3.84l7.5-20.64c1.24-3.44,3.24-5.8,6-7.08,2.2-1,5.38-1.5,9.54-1.5h18.42c4.56,0,7.58.64,9.06,1.92.72.6,1.08,1.56,1.08,2.88,0,1.16-.26,2.44-.78,3.84l-4.14,11.34h-24.42l-2.82,7.64c-.16.44-.24.89-.24,1.37,0,.92.64,1.37,1.92,1.37,1.76,0,2.98-.91,3.66-2.74l1.74-4.76h19.14ZM170.64,144c-.68.44-1.22,1.24-1.62,2.4l-1.08,3h5.7l1.08-3c.2-.6.3-1.1.3-1.5,0-1.08-.7-1.62-2.1-1.62-1,0-1.76.24-2.28.72Z"/>
      <path class="cls-1" d="M213.78,174l13.68-37.74h17.94l-.72,2.28c4.08-1.68,8.26-2.52,12.54-2.52s7.36,1.24,9.12,3.72c4.4-2.48,9.28-3.72,14.64-3.72,4.2,0,7.02.96,8.46,2.88.92,1.16,1.38,2.46,1.38,3.9,0,1.2-.3,2.62-.9,4.26l-9.78,26.94h-18.84l9.6-26.28c.2-.6.3-1.08.3-1.44,0-.96-.6-1.44-1.8-1.44-1.76,0-3,.96-3.72,2.88l-9.48,26.28h-18.42l9.54-26.28c.16-.44.24-.92.24-1.44,0-.96-.66-1.44-1.98-1.44-1.76,0-2.98.96-3.66,2.88l-9.54,26.28h-18.6Z"/>
      <path class="cls-1" d="M331.62,159.12l-2.34,6.36c-1.28,3.48-3.3,5.84-6.06,7.08-2.16.96-5.34,1.44-9.54,1.44h-18.42c-4.68,0-7.7-.6-9.06-1.8-.68-.64-1.02-1.6-1.02-2.88,0-1.2.26-2.48.78-3.84l7.5-20.64c1.24-3.44,3.24-5.8,6-7.08,2.2-1,5.38-1.5,9.54-1.5h18.42c4.56,0,7.58.64,9.06,1.92.72.6,1.08,1.56,1.08,2.88,0,1.16-.26,2.44-.78,3.84l-4.14,11.34h-24.42l-2.82,7.64c-.16.44-.24.89-.24,1.37,0,.92.64,1.37,1.92,1.37,1.76,0,2.98-.91,3.66-2.74l1.74-4.76h19.14ZM313.32,144c-.68.44-1.22,1.24-1.62,2.4l-1.08,3h5.7l1.08-3c.2-.6.3-1.1.3-1.5,0-1.08-.7-1.62-2.1-1.62-1,0-1.76.24-2.28.72Z"/>
    </g>
  </g>
</svg>