<?xml version="1.0" encoding="UTF-8"?>
<svg id="Layer_2" data-name="Layer 2" xmlns="http://www.w3.org/2000/svg" viewBox="0 0 140.6 40.61">
  <defs>
    <style>
      .cls-1 {
        fill: #231f20;
        stroke-width: 0px;
      }
    </style>
  </defs>
  <g id="Layer_1-2" data-name="Layer 1">
    <g>
      <path class="cls-1" d="M28.86,11.39c-.3.82-.76,1.38-1.4,1.68-.49.23-1.23.35-2.21.35h-2.81l.6-1.72h.28c.7,0,1.1-.15,1.2-.45l3.26-8.86h4.36l-3.28,9ZM27.98,1.77l.66-1.77h4.37l-.66,1.77h-4.37Z"/>
      <path class="cls-1" d="M30.33,9.2l1.75-4.81c.29-.8.76-1.35,1.43-1.65.51-.23,1.25-.35,2.22-.35h4.29c1.57,0,2.35.36,2.35,1.09,0,.25-.07.55-.2.91l-1.75,4.81c-.3.81-.76,1.36-1.4,1.66-.48.21-1.21.32-2.21.32h-4.29c-1.1,0-1.8-.14-2.11-.43-.18-.16-.27-.39-.27-.68,0-.26.06-.55.18-.87ZM36.37,4.75l-1.48,4.07c-.03.09-.04.17-.04.24,0,.25.14.39.43.4.39.03.67-.19.84-.64l1.5-4.07c.04-.1.06-.19.06-.26,0-.27-.14-.4-.42-.4-.42,0-.71.22-.88.67Z"/>
      <path class="cls-1" d="M53.61,2.39l-3.2,8.8h-4.28l.2-.54s-.31.1-.81.25c-.78.24-1.49.36-2.11.36-1.03,0-1.71-.22-2.03-.66-.2-.21-.29-.5-.29-.85,0-.33.07-.68.21-1.06l2.29-6.3h4.37l-2.21,6.12c-.08.23-.1.41-.06.53.05.11.18.17.39.17.42,0,.71-.22.87-.66l2.22-6.16h4.43Z"/>
      <path class="cls-1" d="M51.13,11.18l3.19-8.79h4.25l-.17.53c.73-.29,1.34-.47,1.84-.53.29-.04.6-.06.92-.06.98,0,1.62.22,1.93.66.2.29.29.58.29.87,0,.32-.07.67-.21,1.05l-.35.96h-4.16l.29-.81c.06-.19.08-.3.08-.34-.03-.22-.18-.34-.45-.34-.42,0-.71.22-.87.67l-2.22,6.12h-4.37Z"/>
      <path class="cls-1" d="M60.94,11.18l3.19-8.79h4.25l-.2.56c1.05-.41,2.03-.61,2.92-.61,1.55,0,2.32.53,2.32,1.58,0,.32-.07.66-.2,1.02l-2.28,6.25h-4.37l2.22-6.12c.05-.14.07-.25.08-.34,0-.07-.02-.13-.07-.18-.06-.1-.18-.15-.38-.15-.44,0-.74.22-.89.67l-2.22,6.12h-4.37Z"/>
      <path class="cls-1" d="M75.06,6.32l4.19-1.19c.16-.38.24-.65.24-.81,0-.19-.17-.28-.52-.28-.42,0-.72.23-.89.7l-.1.31h-4.29l.25-.67c.31-.79.79-1.34,1.44-1.64.51-.23,1.25-.35,2.21-.35h4.12c.67,0,1.17.05,1.5.14.6.17.89.5.89,1.01,0,.22-.07.51-.2.85l-2.47,6.79h-4.25l.2-.53c-1,.4-1.98.6-2.95.6s-1.68-.21-2-.64c-.19-.26-.29-.56-.31-.91-.05-.56.11-1.13.46-1.7.27-.46.57-.8.9-1.03.33-.23.85-.44,1.57-.65ZM78.03,8.67l.49-1.35-.67.19c-.53.15-.9.44-1.11.88-.1.26-.15.48-.15.64,0,.22.17.34.5.34.46,0,.78-.23.94-.7Z"/>
      <path class="cls-1" d="M82.12,11.18l4.07-11.18h4.37l-4.07,11.18h-4.37Z"/>
      <path class="cls-1" d="M87.17,11.18l3.2-8.79h4.37l-3.2,8.79h-4.37ZM90.59,1.77l.64-1.77h4.37l-.64,1.77h-4.37Z"/>
      <path class="cls-1" d="M92.27,11.18l3.19-8.79h4.25l-.2.56c1.05-.41,2.03-.61,2.92-.61,1.55,0,2.32.53,2.32,1.58,0,.32-.07.66-.2,1.02l-2.28,6.25h-4.37l2.22-6.12c.05-.14.07-.25.08-.34,0-.07-.02-.13-.07-.18-.06-.1-.18-.15-.38-.15-.44,0-.74.22-.89.67l-2.22,6.12h-4.37Z"/>
      <path class="cls-1" d="M116.13,2.39l-3.28,9.04c-.29.79-.77,1.35-1.44,1.66-.51.23-1.25.35-2.21.35h-6.64l.6-1.68h4.12c.69,0,1.09-.16,1.2-.48l.24-.6c-.94.37-1.88.56-2.81.56-1.54,0-2.31-.52-2.31-1.55,0-.33.07-.67.21-1.03l1.34-3.76c.61-1.71,1.94-2.57,3.98-2.57,1.01,0,1.85.21,2.53.64l.22-.59h4.23ZM109.52,8.54l1.26-3.48c.05-.13.07-.24.07-.34,0-.22-.15-.34-.45-.34-.42,0-.71.22-.87.67l-1.24,3.47c-.04.09-.06.18-.06.27,0,.27.15.41.45.41.39,0,.67-.22.84-.66Z"/>
      <path class="cls-1" d="M.18,23.87l1.75-4.81c.29-.8.76-1.35,1.43-1.65.51-.23,1.25-.35,2.22-.35h4.29c1.57,0,2.35.36,2.35,1.09,0,.25-.07.55-.2.91l-1.75,4.81c-.3.81-.76,1.36-1.4,1.66-.48.21-1.21.32-2.21.32H2.38c-1.1,0-1.8-.14-2.11-.43-.18-.16-.27-.39-.27-.68,0-.26.06-.55.18-.87ZM6.22,19.42l-1.48,4.07c-.03.09-.04.17-.04.24,0,.25.14.39.43.4.39.03.67-.19.84-.64l1.5-4.07c.04-.1.06-.19.06-.26,0-.27-.14-.4-.42-.4-.42,0-.71.22-.88.67Z"/>
      <path class="cls-1" d="M23.46,17.06l-3.2,8.8h-4.28l.2-.54s-.31.1-.81.25c-.78.24-1.49.36-2.11.36-1.03,0-1.71-.22-2.03-.66-.2-.21-.29-.5-.29-.85,0-.33.07-.68.21-1.06l2.29-6.3h4.37l-2.21,6.12c-.08.23-.1.41-.06.53.05.11.18.17.39.17.42,0,.71-.22.87-.66l2.22-6.16h4.43Z"/>
      <path class="cls-1" d="M24.5,18.78h-1.16l.62-1.72h1.16l.87-2.39h4.39l-.88,2.39h1.82l-.6,1.72h-1.83l-1.76,4.81c-.08.23-.07.38.04.46.08.06.34.08.78.08h.8l-.61,1.72h-3.34c-1.08,0-1.77-.15-2.08-.45-.17-.17-.25-.38-.25-.64,0-.23.07-.54.21-.92l1.84-5.06Z"/>
      <path class="cls-1" d="M38,14.67h4.4l-4.09,11.18h-4.26l.21-.56c-.94.42-1.93.63-2.98.63-1.57,0-2.35-.52-2.35-1.55,0-.3.07-.64.21-1.02l1.4-3.79c.63-1.72,1.97-2.59,4-2.59.48,0,.92.04,1.31.13.28.07.65.21,1.1.43l1.05-2.86ZM34.88,23.2l1.27-3.47c.06-.16.08-.27.08-.35s-.02-.13-.07-.18c-.06-.12-.19-.18-.39-.18-.38,0-.66.24-.84.71l-1.27,3.47c-.05.17-.07.28-.07.35,0,.21.13.32.41.32.43,0,.72-.22.88-.67Z"/>
      <path class="cls-1" d="M39.7,23.87l1.75-4.81c.29-.8.76-1.35,1.43-1.65.51-.23,1.25-.35,2.22-.35h4.29c1.57,0,2.35.36,2.35,1.09,0,.25-.07.55-.2.91l-1.75,4.81c-.3.81-.76,1.36-1.4,1.66-.48.21-1.21.32-2.21.32h-4.29c-1.1,0-1.8-.14-2.11-.43-.18-.16-.27-.39-.27-.68,0-.26.06-.55.18-.87ZM45.74,19.42l-1.48,4.07c-.03.09-.04.17-.04.24,0,.25.14.39.43.4.39.03.67-.19.84-.64l1.5-4.07c.04-.1.06-.19.06-.26,0-.27-.14-.4-.42-.4-.42,0-.71.22-.88.67Z"/>
      <path class="cls-1" d="M50.64,23.87l1.75-4.81c.29-.8.76-1.35,1.43-1.65.51-.23,1.25-.35,2.22-.35h4.29c1.57,0,2.35.36,2.35,1.09,0,.25-.07.55-.2.91l-1.75,4.81c-.3.81-.76,1.36-1.4,1.66-.48.21-1.21.32-2.21.32h-4.29c-1.1,0-1.8-.14-2.11-.43-.18-.16-.27-.39-.27-.68,0-.26.06-.55.18-.87ZM56.68,19.42l-1.48,4.07c-.03.09-.04.17-.04.24,0,.25.14.39.43.4.39.03.67-.19.84-.64l1.5-4.07c.04-.1.06-.19.06-.26,0-.27-.14-.4-.42-.4-.42,0-.71.22-.88.67Z"/>
      <path class="cls-1" d="M60.68,25.85l3.19-8.79h4.25l-.17.53c.73-.29,1.34-.47,1.84-.53.29-.04.6-.06.92-.06.98,0,1.62.22,1.93.66.2.29.29.58.29.87,0,.32-.07.67-.21,1.05l-.35.96h-4.16l.29-.81c.06-.19.08-.3.08-.34-.03-.22-.18-.34-.45-.34-.42,0-.71.22-.87.67l-2.22,6.12h-4.37Z"/>
      <path class="cls-1" d="M81.12,23.83c-.32.84-.8,1.41-1.44,1.7-.48.21-1.22.32-2.21.32h-4.32c-1.08,0-1.77-.14-2.08-.42-.18-.17-.27-.4-.27-.7,0-.26.06-.55.18-.87l.39-1.1h4.43l-.27.72c-.04.12-.06.23-.06.33,0,.21.14.32.42.32.24,0,.43-.03.55-.1.13-.07.23-.23.3-.48.1-.34.15-.53.15-.56,0-.13-.03-.22-.1-.28-.12-.12-.34-.23-.67-.32l-2.28-.66c-.73-.2-1.17-.43-1.34-.68-.1-.15-.15-.31-.15-.49,0-.17.05-.39.15-.68l.29-.82c.28-.79.75-1.34,1.43-1.65.52-.23,1.25-.35,2.19-.35h4.23c1.57,0,2.35.36,2.35,1.09,0,.23-.07.54-.2.91l-.21.59h-4.36c.09-.3.14-.48.14-.53,0-.07-.01-.13-.04-.18-.07-.12-.21-.18-.41-.18-.48,0-.75.17-.81.5-.05.21-.02.37.07.47.09.1.38.22.87.36l1.73.49c.96.28,1.51.55,1.64.82.13.27.2.45.2.55,0,.31-.05.6-.15.87l-.38,1.02Z"/>
      <path class="cls-1" d="M97.21,17.06l-.5,3.84,2.31-3.84h4.22l-5.77,8.79h-4.01l.49-4.13-2.5,4.13h-4l.59-8.79h4.21l-.48,3.84,2.28-3.84h3.17Z"/>
      <path class="cls-1" d="M100.84,23.87l1.75-4.81c.29-.8.76-1.35,1.43-1.65.51-.23,1.25-.35,2.22-.35h4.29c1.57,0,2.35.36,2.35,1.09,0,.25-.07.55-.2.91l-1.75,4.81c-.3.81-.76,1.36-1.4,1.66-.48.21-1.21.32-2.21.32h-4.29c-1.1,0-1.8-.14-2.11-.43-.18-.16-.27-.39-.27-.68,0-.26.06-.55.18-.87ZM106.88,19.42l-1.48,4.07c-.03.09-.04.17-.04.24,0,.25.14.39.43.4.39.03.67-.19.84-.64l1.5-4.07c.04-.1.06-.19.06-.26,0-.27-.14-.4-.42-.4-.42,0-.71.22-.88.67Z"/>
      <path class="cls-1" d="M124.12,17.06l-3.2,8.8h-4.28l.2-.54s-.31.1-.81.25c-.78.24-1.49.36-2.11.36-1.03,0-1.71-.22-2.03-.66-.2-.21-.29-.5-.29-.85,0-.33.07-.68.21-1.06l2.29-6.3h4.37l-2.21,6.12c-.08.23-.1.41-.06.53.05.11.18.17.39.17.42,0,.71-.22.87-.66l2.22-6.16h4.43Z"/>
      <path class="cls-1" d="M121.63,25.85l4.07-11.18h4.37l-4.07,11.18h-4.37Z"/>
      <path class="cls-1" d="M136.2,14.67h4.4l-4.09,11.18h-4.26l.21-.56c-.94.42-1.93.63-2.98.63-1.57,0-2.35-.52-2.35-1.55,0-.3.07-.64.21-1.02l1.4-3.79c.63-1.72,1.97-2.59,4-2.59.48,0,.92.04,1.31.13.28.07.65.21,1.1.43l1.05-2.86ZM133.08,23.2l1.27-3.47c.06-.16.08-.27.08-.35s-.02-.13-.07-.18c-.06-.12-.19-.18-.39-.18-.38,0-.66.24-.84.71l-1.27,3.47c-.05.17-.07.28-.07.35,0,.21.13.32.41.32.43,0,.72-.22.88-.67Z"/>
      <path class="cls-1" d="M42.18,38.54c-.3.79-.77,1.34-1.43,1.64-.5.23-1.24.35-2.21.35h-4.29c-1.06,0-1.77-.15-2.11-.45-.16-.12-.24-.34-.24-.64,0-.28.06-.58.18-.89l1.76-4.82c.3-.8.76-1.35,1.4-1.65.48-.22,1.22-.34,2.21-.34h4.3c.67,0,1.16.05,1.48.14.59.17.88.5.88,1.01,0,.25-.06.53-.17.84l-.53,1.37h-4.44l.36-.99c.04-.12.06-.22.06-.31,0-.24-.14-.36-.42-.36-.22,0-.4.05-.52.15-.16.1-.28.27-.36.52l-1.47,4.07c-.04.08-.06.17-.06.25,0,.25.14.38.43.39.41.02.7-.19.87-.64l.53-1.43h4.44l-.67,1.8Z"/>
      <path class="cls-1" d="M55.37,31.74l-3.2,8.8h-4.28l.2-.54s-.31.1-.81.25c-.78.24-1.49.36-2.11.36-1.03,0-1.71-.22-2.03-.66-.2-.21-.29-.5-.29-.85,0-.33.07-.68.21-1.06l2.29-6.3h4.37l-2.21,6.12c-.08.23-.1.41-.06.53.05.11.18.17.39.17.42,0,.71-.22.87-.66l2.22-6.16h4.43Z"/>
      <path class="cls-1" d="M52.88,40.53l3.19-8.79h4.25l-.17.53c.73-.29,1.34-.47,1.84-.53.29-.04.6-.06.92-.06.98,0,1.62.22,1.93.66.2.29.29.58.29.87,0,.32-.07.67-.21,1.05l-.35.96h-4.16l.29-.81c.06-.19.08-.3.08-.34-.03-.22-.18-.34-.45-.34-.42,0-.71.22-.87.67l-2.22,6.12h-4.37Z"/>
      <path class="cls-1" d="M74,37.06l-.55,1.48c-.3.81-.77,1.36-1.41,1.65-.5.22-1.24.34-2.22.34h-4.29c-1.09,0-1.79-.14-2.11-.42-.16-.15-.24-.37-.24-.67,0-.28.06-.58.18-.89l1.75-4.81c.29-.8.75-1.35,1.4-1.65.51-.23,1.25-.35,2.22-.35h4.29c1.06,0,1.77.15,2.11.45.17.14.25.36.25.67,0,.27-.06.57-.18.89l-.96,2.64h-5.69l-.66,1.78c-.04.1-.06.21-.06.32,0,.21.15.32.45.32.41,0,.69-.21.85-.64l.41-1.11h4.46ZM69.73,33.54c-.16.1-.28.29-.38.56l-.25.7h1.33l.25-.7c.05-.14.07-.26.07-.35,0-.25-.16-.38-.49-.38-.23,0-.41.06-.53.17Z"/>
      <path class="cls-1" d="M79.78,40.53l3.19-8.79h4.18l-.17.53c.95-.39,1.92-.59,2.92-.59s1.71.29,2.12.87c1.02-.58,2.16-.87,3.41-.87.98,0,1.63.22,1.97.67.21.27.32.57.32.91,0,.28-.07.61-.21.99l-2.28,6.27h-4.39l2.24-6.12c.05-.14.07-.25.07-.34,0-.22-.14-.34-.42-.34-.41,0-.7.22-.87.67l-2.21,6.12h-4.29l2.22-6.12c.04-.1.06-.21.06-.34,0-.22-.15-.34-.46-.34-.41,0-.69.22-.85.67l-2.22,6.12h-4.33Z"/>
      <path class="cls-1" d="M107.23,37.06l-.55,1.48c-.3.81-.77,1.36-1.41,1.65-.5.22-1.24.34-2.22.34h-4.29c-1.09,0-1.79-.14-2.11-.42-.16-.15-.24-.37-.24-.67,0-.28.06-.58.18-.89l1.75-4.81c.29-.8.75-1.35,1.4-1.65.51-.23,1.25-.35,2.22-.35h4.29c1.06,0,1.77.15,2.11.45.17.14.25.36.25.67,0,.27-.06.57-.18.89l-.96,2.64h-5.69l-.66,1.78c-.04.1-.06.21-.06.32,0,.21.15.32.45.32.41,0,.69-.21.85-.64l.41-1.11h4.46ZM102.96,33.54c-.16.1-.28.29-.38.56l-.25.7h1.33l.25-.7c.05-.14.07-.26.07-.35,0-.25-.16-.38-.49-.38-.23,0-.41.06-.53.17Z"/>
    </g>
  </g>
</svg>