<?xml version="1.0" encoding="UTF-8"?>
<svg id="Layer_2" data-name="Layer 2" xmlns="http://www.w3.org/2000/svg" viewBox="0 0 326.13 357.4">
  <defs>
    <style>
      .cls-1 {
        fill: #e93026;
      }

      .cls-1, .cls-2, .cls-3, .cls-4, .cls-5 {
        stroke-width: 0px;
      }

      .cls-2 {
        fill: #f6bd20;
      }

      .cls-3 {
        fill: #6ccbdd;
      }

      .cls-4 {
        fill: #f2efed;
      }

      .cls-5 {
        fill: #222525;
      }
    </style>
  </defs>
  <g id="Layer_1-2" data-name="Layer 1">
    <g>
      <path class="cls-2" d="M235.63,109.91c4.19,11.73,12.18,20.46,22.81,26.3,5.91,3.24,7.83,7.48,7.59,13.51-2.44,63.44,3.21,127.02-3.77,190.39-1.89,17.13-1.23,16.91-18.09,16.9-61.93-.05-123.87-.05-185.79.39-9.03.06-11.96-3.53-12.77-11.73-6.11-61.82-3.04-123.78-3.01-185.69,0-5.86,1.36-11.71,1.75-17.59.3-4.42,3.35-6.38,6.49-8.39,11.08-7.1,22.45-13.79,33.2-21.37,8.41-5.92,13.79-14,13.07-25.11-.46-7.13-.41-14.29-.58-21.44,5.96-.69,11.92-1.39,17.88-2.08,5.49,1.99,7.94,5.71,7.49,11.71-.37,4.94-.12,9.95.1,14.92.13,2.98,1.16,5.27,4.87,5.62,25.43,2.4,50.93,2.23,76.42,1.99,4.81-.04,6.38-2.67,6.33-7.22-.11-9.34.08-18.68.14-28.02,7.39,1.08,14.78,2.17,22.18,3.25-1.93,6.7-.07,13.32.43,19.97-5.02,8.73-5.73,16.86,3.26,23.67ZM236.63,243.56c.44-29.54-6.94-52.04-26.71-69.4-9.2-8.08-19.85-14.19-31.98-15.22-42.84-3.63-69.36,18.04-88.35,52.65-8.11,14.78-8.01,30.51-9.57,45.84-2.74,27,4.33,49.85,31.46,63.78,13.21,6.78,26.76,7.62,40.25,8.62,24.96,1.86,47.17-7.88,63.36-26.15,15.6-17.6,23.55-39.59,21.53-60.12Z"/>
      <path class="cls-1" d="M231.94,66.27c-7.39-1.08-14.78-2.17-22.18-3.25-8.27-.84-16.53-1.8-24.82-2.49-23.66-1.96-47.28-2.79-70.54,3.48-5.96.69-11.91,1.39-17.88,2.08-.63.06-1.25.08-1.86.18-12.73,2.15-12.43,2.05-8.54,13.78,6.75,20.36,9.57,17.39-11.39,28.34-18.28,9.55-37.87,13.58-58.15,5.94-9.34-3.52-14.28-11.66-15.57-20.65-3.57-25.01,2.72-48.76,11.61-71.93,1.64-4.28,5.5-5.55,9.46-6.64C67.46,2.6,113.49-2.43,160.57,1.1c45.62,3.43,89.41,13.94,131.73,31.06,5.16,2.09,10.59,3.53,15.68,5.76,11.92,5.21,17.45,14.88,18.05,27.55.9,19.02-4.03,36.77-12.71,53.48-2.12,4.07-5.72,6.45-11.3,6.33-23.26-.51-45.17-6.33-66.39-15.38-8.98-6.8-8.28-14.94-3.26-23.66,1.8-4.19,3.5-8.44,5.44-12.58,3.07-6.55.37-8.33-5.86-7.4Z"/>
      <path class="cls-4" d="M236.63,243.56c2.02,20.53-5.94,42.53-21.53,60.12-16.19,18.26-38.4,28-63.36,26.15-13.5-1-27.04-1.83-40.25-8.62-27.13-13.93-34.21-36.77-31.46-63.78,1.56-15.33,1.46-31.06,9.57-45.84,18.99-34.61,45.51-56.28,88.35-52.65,12.13,1.03,22.78,7.15,31.98,15.22,19.77,17.36,27.15,39.86,26.71,69.4ZM213.24,264.91l.75-.23s-.66-.39-.66-.39c.27-1.49.53-2.98.8-4.47,5.73-3.57,6.06-9.82,7.24-15.42,8.08-38.46-26.43-71.48-62.45-59.59,1.32,1.78,3.44,3.37,3.71,5.23.95,6.61,3.53,14.48-3.83,18.59-6.2,3.47-12.27.41-15.86-5.6-1.68-2.81-2.32-6.4-2.8-9.72-.41-2.84-1.05-4.1-4.02-2.71-5.93,2.77-12.49,4.56-16.72,10.36,6.03,3.19,15.33,1.7,14.17,12.2-.49,4.4-1,8.58-6.6,9.82-11.77,2.6-13.18-6.85-16.32-15.18-3.47,5.12-6.97,8.9-8.9,13.35-12.97,29.93-13.14,57.03,20.79,72.64,31.17,14.34,73.35,4.63,87.9-22.98.94-1.97,1.89-3.94,2.83-5.92Z"/>
      <path class="cls-3" d="M210.41,270.83c-14.55,27.61-56.73,37.32-87.9,22.98-33.93-15.61-33.76-42.71-20.79-72.64,1.93-4.45,5.43-8.23,8.9-13.35,3.14,8.33,4.55,17.78,16.32,15.18,5.6-1.24,6.11-5.42,6.6-9.82,1.16-10.51-8.13-9.01-14.17-12.2,4.23-5.8,10.8-7.59,16.72-10.36,2.97-1.39,3.6-.12,4.02,2.71.49,3.33,1.13,6.91,2.8,9.72,3.59,6.01,9.66,9.07,15.86,5.6,7.36-4.12,4.79-11.99,3.83-18.59-.27-1.86-2.39-3.46-3.71-5.23,36.02-11.89,70.54,21.12,62.45,59.59-1.18,5.6-1.5,11.85-7.24,15.43-.74-1.97-1.48-3.93-2.21-5.9.4-1.48.91-2.95,1.2-4.46,1.47-7.76-2.92-13.34-11.04-13.63-7.68-.27-8.08,5.09-7.79,10.8.06,1.23-.1,2.48-.16,3.71-3,.63-5.81.41-8.16-1.86,1.04-7.58,3.08-15.24-2.69-22.03-11.11-13.08-20.46-14.35-37.14-3.78-15.37,9.74-15.56,23.79-9.11,33.04,8.62,12.38,26.72,14.23,37.7,4.56,2.57.41,4.77,1.47,6.32,3.65.28,3.44-2.82,6.59.36,10.43,6.21,7.49,12.49,5.84,17.87-5.21,3.99-1.26,7.54.4,11.15,1.68ZM187.13,211.82c5.25-.45,10.29-3,10.86-10.17.38-4.85-8.15-13.18-13.2-12.49-5.61.76-10.74,3.41-11.05,10.28-.31,6.82,5.37,12.45,13.4,12.38ZM127.89,267.27c-.19-8.15-5.32-13.13-13.3-12.51-5.35.41-9.56,3.19-9.7,9.24-.14,6.05,7.71,13.63,13.57,12.97,5.72-.64,10.17-3.12,9.43-9.7ZM166.37,271.06c-5.97.17-8.25,5.41-8.48,10.54-.27,5.94,3.72,11.51,9.61,11.52,5.23,0,12.01-1.73,12.39-9.64.27-5.71-6.41-12.19-13.52-12.42ZM139.81,270.58c-6.5.16-10.68,2.58-10.68,9.31,0,7.18,4.28,10.83,10.95,11.45,5.88.55,12.41-5.45,11.75-10.78-.86-7.03-5.73-9.79-12.02-9.98ZM109.97,225.98c-7.18-.82-9.55,4.13-10.58,9.43-.96,4.94,6.76,12.11,12.23,11.91,7.46-.27,9.43-6.48,9.47-11.72.04-6.16-4.36-10.1-11.12-9.62ZM202.46,211.19c-4.46.13-7.97,1.67-8.22,7.39-.29,6.6,4.56,13.41,10.34,13.2,5.75-.2,10.55-3.08,10.68-9.37.16-7.86-5.86-10.07-12.8-11.23Z"/>
      <path class="cls-5" d="M210.41,270.83c-3.61-1.28-7.16-2.94-11.16-1.68-5.22-4.73-11.62-5.35-18.23-5.22-1.55-2.18-3.75-3.24-6.33-3.65-2.35-.76-4.65-1.88-7.06-2.2-6.48-.84-5.84-5.12-4.93-9.57,1.07-5.23,4.49-3.53,7.92-2.84,5.08,1.03,9.86,3.86,15.32,2.82,2.34,2.27,5.15,2.49,8.16,1.87,5.54,3.18,11.36,4.88,17.8,3.57.74,1.97,1.48,3.94,2.21,5.9-.27,1.49-.53,2.98-.8,4.46,0,0-.39.26-.39.26l.3.37c-.94,1.97-1.89,3.94-2.83,5.92Z"/>
      <path class="cls-3" d="M213.24,264.91l-.3-.37s.39-.27.39-.26c0,0,.66.39.66.39l-.75.23Z"/>
      <path class="cls-4" d="M185.95,248.49c-5.46,1.04-10.23-1.79-15.32-2.82-3.43-.69-6.85-2.39-7.92,2.84-.91,4.45-1.55,8.73,4.93,9.57,2.4.31,4.7,1.44,7.06,2.2-10.97,9.67-29.07,7.82-37.69-4.56-6.44-9.25-6.25-23.3,9.11-33.04,16.68-10.57,26.04-9.3,37.14,3.78,5.76,6.79,3.73,14.45,2.69,22.03Z"/>
      <path class="cls-4" d="M187.13,211.82c-8.02.07-13.7-5.56-13.4-12.38.31-6.87,5.44-9.52,11.05-10.28,5.05-.69,13.58,7.65,13.2,12.49-.56,7.17-5.6,9.72-10.86,10.17Z"/>
      <path class="cls-4" d="M127.89,267.27c.74,6.58-3.71,9.06-9.43,9.7-5.85.65-13.7-6.92-13.57-12.97.14-6.05,4.35-8.82,9.7-9.24,7.98-.62,13.11,4.37,13.3,12.51Z"/>
      <path class="cls-4" d="M166.37,271.06c7.11.24,13.8,6.72,13.52,12.42-.38,7.9-7.16,9.65-12.39,9.64-5.89,0-9.88-5.59-9.61-11.52.23-5.13,2.5-10.37,8.48-10.54Z"/>
      <path class="cls-4" d="M139.81,270.58c6.29.18,11.15,2.95,12.02,9.98.66,5.34-5.87,11.33-11.75,10.78-6.66-.62-10.96-4.27-10.95-11.45,0-6.73,4.19-9.15,10.68-9.31Z"/>
      <path class="cls-4" d="M109.97,225.98c6.75-.48,11.16,3.46,11.12,9.62-.04,5.24-2.01,11.45-9.47,11.72-5.46.2-13.18-6.97-12.23-11.91,1.03-5.3,3.39-10.25,10.58-9.43Z"/>
      <path class="cls-4" d="M202.46,211.19c6.93,1.16,12.96,3.37,12.8,11.23-.13,6.28-4.93,9.16-10.68,9.37-5.78.21-10.63-6.6-10.34-13.2.25-5.72,3.76-7.25,8.22-7.39Z"/>
      <path class="cls-4" d="M211.91,253.92c-6.43,1.32-12.26-.38-17.8-3.57.05-1.24.22-2.48.16-3.72-.29-5.72.11-11.07,7.79-10.8,8.13.29,12.51,5.87,11.04,13.63-.29,1.51-.79,2.97-1.2,4.46Z"/>
      <path class="cls-4" d="M181.03,263.93c6.61-.14,13,.48,18.23,5.22-5.38,11.05-11.65,12.7-17.87,5.21-3.18-3.83-.09-6.99-.36-10.43Z"/>
    </g>
  </g>
</svg>