<?xml version="1.0" encoding="UTF-8"?>
<svg id="Layer_2" data-name="Layer 2" xmlns="http://www.w3.org/2000/svg" viewBox="0 0 402.72 376.15">
  <defs>
    <style>
      .cls-1 {
        fill: #4272b6;
      }

      .cls-1, .cls-2, .cls-3, .cls-4 {
        stroke-width: 0px;
      }

      .cls-2 {
        fill: #6ccbdd;
      }

      .cls-3 {
        fill: #f2efed;
      }

      .cls-4 {
        fill: #222525;
      }
    </style>
  </defs>
  <g id="Layer_1-2" data-name="Layer 1">
    <g>
      <path class="cls-2" d="M305.68,123.22c-.74,1.44-2.05,2.85-2.12,4.32-1.41,29.37-.54,58.37,12.43,85.75,3.64,7.68,8.02,10.29,16.59,8.42,15.66-3.41,19.26-1.11,22.49,14.11,4.89,23.09,16.49,43.86,22.17,66.69,5.11,20.53,1.62,41.54,4.98,62.11.85,5.23-2.42,7.12-7.3,7.12-25.56.02-51.12.13-76.69.18-3.12,0-6.42-.08-6.36-4.47.11-8.38-5.43-10.97-12.27-11.72-32.45-3.57-65.02-4.59-97.59-2.95-10.15.51-14.92,9.93-19.23,17.58-2.17,3.85-3.58,5.58-7.8,5.58-20.18-.02-40.36.13-60.55.22-4.22.02-8.47-.19-9.01-5.7-1.83-18.6-5.81-37.18-.89-55.89,6.06,2.64,6.98-2.51,10.1-6.74-10.9.71-10.3-5.99-9.7-12.7,2.53-5.56,3.35-11.48,3.78-17.5.11-3.11.22-6.21.33-9.32,6.07-13.82,9.09-28.62,13.51-42.97,1.71-5.54,3.97-7.25,9.71-7.29,24.05-.17,24.69-1.69,30.02-26.33,2.81-12.99,6.73-25.76,9.04-38.93,4.06-23.16,4.45-46.62,6.5-69.95.28-3.17,1-7.11-4.12-7.57,12.13-4.01,24.38-7.47,37.13-8.84.56,3.95,1.71,7.91,1.56,11.83-.31,7.99,2.47,11.3,11.01,11.04,16.71-.51,33.44.05,50.16.09,16.26.03,16.26-.01,15.6-16.6-.03-.66-.21-1.32-.33-1.98,11.35,2.78,23.1,4.3,33.41,10.42.28,9.96-2.46,20.06,1.31,29.87-1.63,4.45-.52,8.41,2.13,12.11ZM166.76,232.1c1.55,10.18,9.77,13.26,17.71,16.63.89,3.06,3.35,3.71,6.08,3.95,10.75,10.05,24.45,7.9,37.27,8.5,7.21.34,14.76-.74,19.11-8.16,5.22-2.56,10.83-4.57,14.09-9.92.44,2.95,2.12,3.08,4.08,1.53,3.66-2.87,7.25-5.82,10.74-8.9,4.27-3.77,2.97-6.48-2.1-7.33-7.15-1.19-12.2-5.24-15.93-11.01-3.62-5.6-3.67-10.2,4.6-11.17,10.53-1.23,21.05-2.52,31.57-3.78-.35,9-6.62,15.51-9.78,23.33-.75,1.86-3.95,3.86-.52,5.75,2.07,1.14,3.77-.61,4.72-2.54,3.55-7.17,7.22-14.29,10.48-21.58,1.53-3.42-1.08-4.73-3.96-5.39,2.77-10.89,2.62-21.72.97-32.89-3.8-25.74-18.12-44.15-41.86-51.69-30.99-9.85-60.04-1.78-82.73,21.7-24.16,25-27.45,56.18-11.92,86.82.92,1.8,2.82,2.86,5.13,2.35-.35,1.92-.13,3.5,2.26,3.8Z"/>
      <path class="cls-1" d="M302.25,81.24c-10.31-6.12-22.06-7.64-33.41-10.42-25.65-7.64-51.72-7.98-78.01-4.38-12.75,1.37-25,4.83-37.13,8.84-2.9.82-6.36.89-8.55,2.61-3.48,2.73-8.11,4.47-4.55,11.8,4.76,9.83,6.58,21.09,9.62,31.74,1.25,4.36.32,6.79-4.38,9.34-29.7,16.11-61.35,26.02-94.49,31.79-7.11,1.24-8.98-1.71-9-8.02-.05-15.74-.35-31.48-.54-47.22,4.24-1.27,8.06-3.3,11.21-6.39,1.29-1.26,3.94-2.42,2.24-4.79-1.13-1.58-3.06-2.47-5.32-1.35-1.75.87-3.67,1.4-5.51,2.09,1.37-12.79,4.96-25.14,9.5-37,6.16-16.11,22.56-20.32,36.04-26.93C135.27,10.76,183.07-3.28,233.85.66c43.76,3.4,85.86,14.27,122.1,41.45,11.16,8.37,23.69,14.75,33.4,25.24,6.97,7.53,11.13,15.95,12.19,25.92,2.77,26.07.97,51.62-8.85,76.29-3.26,8.2-7.43,10.78-15.78,5.86-25.52-15-50.76-30.32-71.22-52.2-2.65-3.7-3.76-7.66-2.13-12.11,2.02-3.08,4.07-6.15,6.07-9.25q9.4-14.59-7.38-20.62Z"/>
      <path class="cls-4" d="M84.94,295.12c-.6,6.7-1.2,13.4,9.7,12.7-3.13,4.23-4.04,9.38-10.1,6.74-3.55-2.77-6.84-7.22-11.62-1.67-.39.45-1.26.77-1.85.69-1.93-.25-4.85-.06-5.57-1.2-5.6-8.81-22.35-.39-23.67-15.5-.38-4.32-2.1-5.38-7.06-4.81-7.73.88-10.88-5.26-12.45-11.98-1.12-4.79-2.77-8.36-7.15-12.1-8.28-7.07-5.74-18-4.32-27.57.75-5.05-1.63-10.04-1.37-13.72C10.62,210.58-.15,197.54,0,182.03c.11-11.27,4.03-22.16,2.56-34.87,2.27,8.43,4.65,8.16,8.37,2.3,4.03-6.35,10.04-10.73,16.39-14.69,6.24-3.89,8.86-.71,9.44,4.95,1.6,15.59-11.71,29.28-27.76,28.15-3.95-.28-4.79,1.36-5.5,3.93-1.27,4.59-1.28,9.29-.16,13.95.97,4.03,2.44,8.66,6.41,9.59,4.09.96,2.48-5.67,6.12-6.87,3.49,2-2.14,4.42.43,6.74,5.31-.18,9.3-5.89,16.09-5.07-3.76,5.77-9.07,8.87-13.98,12.14-9.58,6.36-10.59,11.85-2.15,23.18,3.13-11.54,11.77-18.03,18.69-25.9,2.1-2.39,4.75-3.92,7.91-2.31,3.4,1.73,2.64,5.03,2.42,8.04-.14,1.91-.77,3.26-3.01,2.86-12.63-2.28-15.22,8.74-21.89,14.96,5.56,3.89,9.63-3.34,14.75.55-3.15,4.11-7.62,6.11-11.98,8.12-8.8,4.05-13.26,17.21-8.97,26.04,1.31,2.7,3.12,4.63,5.84,4.92,3.59.38,2.92-3.28,3.4-5.14,2.17-8.41,8.51-13.56,14.35-19.04,4.12-3.87,7-3.31,7.81,3,1.05,8.3-1.51,14.77-8.55,19.39-2.09-6.34,6.49-9.8,4.78-16.37-9.63,4.75-12.56,8.56-14.02,17.86,3.42,1.08,5.54-5.41,9.43-1.63-2.46,2.63-3.82,6.16-7.65,7.7-3.86,1.56-5.24,4.39-3.53,8.96,1.88,5.02,5.84,6.83,10.08,6.94,3.75.1,4.96-3.49,5.41-7.23.99-8.11,4.81-15.29,8.41-22.49,1.28-2.56,3.68-3.89,6.26-4.52.73-.18,2.64,1.34,2.71,2.19.25,2.86-1.72,3.99-3.97,5.83-5.85,4.77-7.4,12.3-9.11,19.46,2.3,2.83,3.95-2.28,6.1-.32.06.44.37,1.13.15,1.45-1.92,2.74-4.19,5.27-5.85,8.15-2.11,3.64-1.1,7.11,1.57,10.19,1.99,2.3,4.42,2.92,7.27,1.98,4.38-1.44,1.97-5.03,2.44-7.71,1.97-11.21.98-23.59,11.74-31.42,1.82-1.33,4.35-4.8,6.55-1.91,2.13,2.79.66,5.16-3.04,7.3-8.54,4.96-12.41,20.21-8.49,29.57.36.86.89,1.98.64,2.73-1.76,5.16.82,7.17,5.35,6.74,4.19-.4,6.77-2.14,7.3-7.62,1.01-10.4.92-21.78,11.52-28.5-.11,3.1-.23,6.21-.33,9.31-7.46,4.41-9.53,13.95-3.79,17.5ZM10.67,157.03c10.37,3.06,17.76-.3,21.26-9.29.79-2.03,1.36-3.88-.61-5.41-1.49-1.15-3.27-.95-4.7.05-5.94,4.13-12.58,7.54-15.95,14.65Z"/>
      <path class="cls-4" d="M44.43,96.88c1.84-.68,3.76-1.22,5.51-2.09,2.26-1.12,4.19-.22,5.32,1.35,1.7,2.37-.95,3.53-2.24,4.79-3.15,3.08-6.98,5.12-11.21,6.39-13.18,10.82-31.03,16.33-37.13,35.15,2.1-25.67,22.18-34.47,39.75-45.59Z"/>
      <path class="cls-4" d="M36.99,182.09c.63-13.3-9.35-.37-11.79-6.13,3.33-3.97,8.56-9.34,13.73-6.91,4.4,2.07,1.45,8.63-1.95,13.04Z"/>
      <path class="cls-3" d="M164.5,228.31c-2.3.51-4.21-.55-5.13-2.35-15.53-30.64-12.24-61.82,11.92-86.82,22.69-23.48,51.74-31.55,82.73-21.7,23.75,7.54,38.06,25.96,41.86,51.69,1.65,11.17,1.8,22-.97,32.89-.31.16-.62.3-.95.43-10.52,1.26-21.05,2.55-31.57,3.78-8.27.97-8.22,5.56-4.6,11.17,3.73,5.77,8.77,9.82,15.93,11.01,5.07.84,6.37,3.55,2.1,7.33-3.48,3.08-7.08,6.03-10.74,8.9-1.97,1.54-3.64,1.42-4.08-1.54.09-2.67.67-5.43.18-7.99-1.39-7.33-9.48-10.89-19.63-9.15-7.86,1.34-9.89,7.48-8.68,13.43,1.41,6.92,5.77,12.81,14.04,13.63-4.35,7.42-11.9,8.5-19.11,8.16-12.83-.6-26.52,1.55-37.27-8.5,0,0,.1-.1.1-.1,4.21,1.41,8.08.23,11.39-2.2,3.12-2.28,5.46-2.1,7.57.97,5.83,8.5,12.5,4.84,17.95.33,5.25-4.34,5.66-10.89,1.06-16.1-4.69-5.3-10.28-10.59-17.69-3.23-1.4,1.39-2.59,3.23-4.63.49-4.81-6.45-12-6.4-19.07-6.3,1.26-7.83.45-14.18-8.34-16.6-7.13-1.96-11.79.95-14.4,7.32-1.43,3.48-.6,7.29.15,10.93l-.11.11ZM255.11,145.85c-1.12-6.83-.55-13.9-7.35-19.02-6-4.52-11.98-4.84-17.6-1.53-5.11,3.01-4.47,17.6.54,23.29,4.49,5.1,9.87,4.55,15.28,1.22,2.2-1.36,3.83-4.88,7.25-2.09-1.17,2.69-2.77,5.27-3.43,8.08-2.14,9.15,5.15,18.22,13.72,17.14,7.05-.89,12.81-4.06,15.52-11.08,2.15-5.58,1.14-10.55-3.66-14.47-6.4-5.24-13.15-5.81-20.28-1.54ZM249.03,184.28c.96-8.13-2.53-15.41-5.86-22.8-1.77-3.93-4.83-5.26-8.67-5.78-15.93-2.14-27.9,4.2-34.89,18.52-6.75,13.83-4.94,28.85,4.14,35.92,9.51,7.4,20.25,8.47,30.28,3.08,10.74-5.78,15.82-16.04,15-28.94ZM154.05,190.63c-.13,5.75,8.95,16.39,14.25,16.7,6.82.4,16.14-8.44,16.13-15.3-.01-9.35-6.99-16.3-16.44-16.36-7.29-.05-13.76,6.9-13.94,14.97ZM167.46,157.51c.11,7.88,6.93,14.69,14.52,14.49,8.88-.23,13.77-6.01,13.62-16.09-.15-9.71-5.05-14.61-14.68-14.66-7.9-.04-13.6,6.84-13.47,16.26ZM194.62,137.17c.2,8.25,6.37,15.59,12.42,15.45,5.85-.14,14.87-9.04,14.64-14.46-.26-6.15-9.63-14.84-15.84-14.39-8.69.62-10.65,6.85-11.22,13.4ZM268.6,183.43c-.62,7.8,5.2,15.6,12.18,15.56,8.02-.05,11.76-4.73,12.66-12.58,1.04-9.07-4.93-12.3-11.71-13.21-6.78-.9-12.45,2.09-13.13,10.23Z"/>
      <path class="cls-4" d="M246.93,253.02c-8.28-.82-12.64-6.7-14.04-13.63-1.21-5.95.82-12.09,8.68-13.43,10.16-1.74,18.24,1.82,19.63,9.15.49,2.56-.09,5.32-.18,7.99-3.26,5.36-8.87,7.36-14.09,9.92Z"/>
      <path class="cls-1" d="M293.98,202.46c.32-.13.64-.27.95-.43,2.88.66,5.49,1.96,3.96,5.39-3.27,7.3-6.93,14.42-10.48,21.58-.95,1.92-2.66,3.67-4.72,2.54-3.43-1.89-.24-3.89.52-5.75,3.17-7.81,9.44-14.32,9.78-23.33Z"/>
      <path class="cls-3" d="M184.47,248.73c-7.94-3.37-16.16-6.44-17.71-16.63.24-.29.49-.57.76-.83,5.65,5.54,11.47,2.09,18.86-.91-6,6.84-2.89,12.55-1.8,18.23l-.11.13Z"/>
      <path class="cls-3" d="M190.54,252.68c-2.73-.24-5.19-.89-6.08-3.95,0,0,.11-.13.11-.13,2.9,0,4.77,1.56,6.07,3.99l-.1.1Z"/>
      <path class="cls-3" d="M166.76,232.1c-2.38-.3-2.6-1.88-2.26-3.8,0,0,.11-.11.11-.11.97,1.02,1.93,2.05,2.9,3.07-.27.26-.52.54-.76.83Z"/>
      <path class="cls-2" d="M249.03,184.28c.82,12.9-4.26,23.16-15,28.94-10.03,5.4-20.78,4.32-30.28-3.08-9.08-7.07-10.89-22.1-4.14-35.92,6.99-14.32,18.96-20.66,34.89-18.52,3.85.52,6.9,1.85,8.67,5.78,3.33,7.39,6.81,14.67,5.86,22.8Z"/>
      <path class="cls-4" d="M167.52,231.27c-.97-1.02-1.93-2.05-2.9-3.07-.75-3.64-1.58-7.44-.15-10.93,2.61-6.37,7.27-9.28,14.4-7.32,8.78,2.41,9.6,8.77,8.34,16.6,7.07-.1,14.26-.15,19.07,6.3,2.04,2.74,3.23.9,4.63-.49,7.41-7.36,13-2.07,17.69,3.23,4.61,5.21,4.19,11.76-1.06,16.1-5.45,4.51-12.12,8.17-17.95-.33-2.1-3.07-4.45-3.25-7.57-.97-3.31,2.42-7.18,3.61-11.39,2.2-1.3-2.43-3.17-4-6.07-3.99-1.09-5.68-4.2-11.39,1.8-18.23-7.39,3-13.21,6.45-18.86.91Z"/>
      <path class="cls-4" d="M255.11,145.85c7.12-4.27,13.87-3.7,20.27,1.54,4.8,3.93,5.81,8.9,3.66,14.47-2.71,7.02-8.47,10.19-15.52,11.08-8.58,1.08-15.86-7.99-13.72-17.14.66-2.81,2.26-5.39,3.43-8.08l-.23.12c1.67.19,2.2-.77,2.24-2.23l-.12.24Z"/>
      <path class="cls-4" d="M154.05,190.63c.18-8.07,6.65-15.02,13.94-14.97,9.45.07,16.43,7.01,16.44,16.36.01,6.86-9.31,15.71-16.13,15.3-5.31-.31-14.38-10.95-14.25-16.7Z"/>
      <path class="cls-4" d="M167.46,157.51c-.13-9.42,5.56-16.3,13.47-16.26,9.62.04,14.53,4.94,14.68,14.66.15,10.08-4.74,15.86-13.62,16.09-7.59.2-14.42-6.61-14.52-14.49Z"/>
      <path class="cls-4" d="M253.23,147.72c-3.41-2.79-5.04.73-7.25,2.09-5.42,3.33-10.79,3.88-15.28-1.22-5.01-5.69-5.65-20.28-.54-23.29,5.62-3.31,11.6-2.98,17.6,1.53,6.8,5.12,6.23,12.19,7.36,19.02,0,0,.12-.24.12-.24-.8-.12-1.33-1.34-2.45-.23-1.13,1.12.09,1.66.21,2.45l.23-.12Z"/>
      <path class="cls-4" d="M194.62,137.17c.56-6.56,2.53-12.78,11.22-13.4,6.22-.45,15.58,8.24,15.84,14.39.23,5.42-8.79,14.33-14.64,14.46-6.05.14-12.22-7.2-12.42-15.45Z"/>
      <path class="cls-4" d="M268.6,183.43c.68-8.13,6.36-11.13,13.13-10.23,6.77.9,12.75,4.14,11.71,13.21-.9,7.85-4.64,12.53-12.66,12.58-6.99.04-12.8-7.76-12.18-15.56Z"/>
      <path class="cls-3" d="M252.99,147.84c-.11-.8-1.33-1.34-.21-2.45,1.13-1.12,1.66.11,2.45.23-.04,1.46-.57,2.42-2.24,2.23Z"/>
    </g>
  </g>
</svg>