<?xml version="1.0" encoding="UTF-8"?>
<svg id="Layer_2" data-name="Layer 2" xmlns="http://www.w3.org/2000/svg" viewBox="0 0 400.9 386.48">
  <defs>
    <style>
      .cls-1 {
        fill: #e93026;
      }

      .cls-1, .cls-2, .cls-3, .cls-4, .cls-5 {
        stroke-width: 0px;
      }

      .cls-2 {
        fill: #4272b6;
      }

      .cls-3 {
        fill: #6ccbdd;
      }

      .cls-4 {
        fill: #f2efed;
      }

      .cls-5 {
        fill: #222525;
      }
    </style>
  </defs>
  <g id="Layer_1-2" data-name="Layer 1">
    <g>
      <path class="cls-2" d="M277.16,68.82c.13,6.52.41,13.05.37,19.57-.13,23.44,9.78,41.26,29.72,53.47,6.16,3.77,9.13,9.35,8.87,16.31-2.6,68.97,2.63,138.06-3.53,206.99-1.81,20.3-1.05,19.8-21.45,19.79-27.11-.02-54.22,1.16-81.34,1.48-41.79.49-83.56-2.36-125.35-.78-5.45.21-8.33-2.06-9.74-7.98-1.81-7.6-2.36-15.3-2.71-22.88-2.21-47.61-3.62-95.25-1.49-142.93.86-19.42,1.06-38.89.81-58.33-.11-8.68,3.58-14.19,11.09-16.6,4.66-1.5,7.25-4.53,10.1-7.74,8.06-8.04,19.63-11.14,27.5-19.48,13.53-13.84,11.03-30.33,7.74-46.95,8.67-2.01,17.45-.82,26.19-.92,4.03,8.38,2.2,17.29,2.23,26,.02,6.52,1.93,9.26,9.3,10.08,25.57,2.86,51.29.14,76.83,2.87,7.11.76,10.64-2.71,11.49-9.99.98-8.37-1.22-16.87,1.41-25.11,7.69-1.49,15.02-.55,21.97,3.14ZM249.49,334.62c8.5-.12,11.31-7.09,15.25-12.69.46-2.68-.46-5.88,2.79-7.53,9.17-7.23,12.54-17.48,14.79-28.32,3.2-16.88,5.98-33.72,4.81-51.11-1.38-20.67-7.8-39.38-20.95-55.17-25.83-31.01-80.95-33.61-114.01-8.02-18.21,14.09-32.92,30.34-43.22,50.41-11.65,22.7-20.34,46.45-11.11,72.44,6.53,18.36,19.41,31.48,34.95,43.04,17.36,12.91,35.92,18.67,57.23,16.01,10.64,5.32,20.86,2.55,31-1.65,6.89-1.14,12.51-5.21,18.6-8.16,4.16-2.02,10.24-2.37,9.93-9.3l-.06.05Z"/>
      <path class="cls-1" d="M120,109.7c-7.86,8.34-19.43,11.44-27.5,19.48-15.46,2.22-30.88,5.61-46.43,6.42-28.89,1.5-27.68,2.95-37.93-24.65C1.1,91.98-3.54,71.64,3.48,50.83c4.6-13.64,14.78-20.45,27.56-24.1C70.45,15.46,110.3,6.63,151.23,2.47c42.21-4.29,83.99-2.82,125.92,3.17,33.21,4.75,64.61,15.68,96.42,25.34,5.67,1.72,11.65,4.1,14.38,9.35,11.88,22.82,18.09,46.87,7.57,71.73-5.83,13.76-17.45,22.05-33.16,22.3-27.23.44-51.88-7.1-73.72-23.85-3.49-2.67-3.98-4.39-2.44-7.76,3.16-6.92,6.04-13.99,9.49-20.77,3.68-7.22,2.66-11.24-6.23-11.54-2.14-.07-4.25-1.05-6.34-1.61.22-.11.4-.21.59-.31-.13.12-.26.25-.39.37-7.27-7.92-16.87-8.37-26.58-8.07-3.78.12-7.37,3.09-11.37.85-30.49-2.36-60.97-2.86-91.45.17-8.74.1-17.52-1.09-26.19.92-4.2,1.01-8.36,2.53-12.61,2.91-7.11.63-8.2,2.76-5.46,9.73,4.36,11.08,6.97,22.84,10.33,34.31Z"/>
      <path class="cls-5" d="M245.38,61.67c3.99,2.25,7.59-.73,11.37-.85,9.71-.31,19.31.15,26.58,8.07.13-.12.26-.25.39-.37-.19.1-.37.21-.59.31-2.02,1.06-4.01.98-5.98-.01-6.93-3.7-14.27-4.63-21.96-3.14-1.86-4.79-6.32-3.2-9.81-4.01Z"/>
      <path class="cls-5" d="M267.53,314.4c-3.24,1.65-2.32,4.85-2.78,7.53-5.37,3.88-11.84,6.45-15.25,12.69,0,0,.06-.05.06-.05-10.41,6.66-21.95,10.86-33.37,15.33-8.72,1.26-17.44,2.52-26.16,3.78-21.32,2.67-39.87-3.09-57.23-16-15.54-11.56-28.42-24.68-34.95-43.04-9.24-25.99-.54-49.74,11.11-72.44,10.3-20.07,25.01-36.32,43.22-50.41,33.05-25.58,88.17-22.99,114.01,8.02,13.15,15.79,19.57,34.5,20.95,55.17,1.16,17.38-1.62,34.22-4.81,51.1-7.89,7.89-10.9,18.34-14.79,28.32ZM219.49,309.99c5.45-1.4,10.4-3.67,14.07-8.15,5.45-2.58,8.25-7.56,11.4-12.36-4.76-3.64-10.06-5.33-15.8-5.86-5.42-1.91-10.85-3.81-16.27-5.72-1.74-.52-3.45-1.2-5.22-1.52-5.45-.99-8.43-3.18-6.42-9.52,1.91-6.02,5.13-5.33,10.03-3.8,5.45,1.7,11.02,3.99,17.03,3.05,2.14,2.27,4.76,2.45,7.59,1.75,3.08.97,6.14,2.03,9.25,2.89,8.03,2.23,13.61.63,13.79-9.1,1.71-7.01,4.31-13.93,1.95-21.32.14-5.36-.85-10.3-5.07-14.09-8.02-26.29-36.42-37.67-56.4-30.16-8.37-1.42-17.32-5.26-22.75,5.51-7.82,4.54-15.63,9.08-23.45,13.63-5.08,2.35-5.99,7.33-7.54,11.91-4.47,2.92-6.92,7.14-7.95,12.29-4.6,5.43-5.06,11.94-4.8,18.63-7.8,26.89,7.59,48.96,39.13,56.13,2.51.14,5.02.29,7.53.43,7.02,3.01,13.99,1.14,20.98-.16,6.98,1.36,12.9-1.78,18.93-4.45Z"/>
      <path class="cls-3" d="M216.18,349.89c11.42-4.47,22.96-8.67,33.37-15.33.3,6.93-5.77,7.28-9.93,9.3-6.08,2.95-11.71,7.02-18.6,8.16-1.02-2.05-3.11-1.68-4.84-2.13Z"/>
      <path class="cls-4" d="M216.18,349.89c1.73.45,3.81.09,4.84,2.13-10.13,4.21-20.35,6.97-30.99,1.65,8.72-1.26,17.44-2.52,26.16-3.78Z"/>
      <path class="cls-3" d="M267.53,314.4c3.89-9.98,6.9-20.43,14.79-28.32-2.24,10.85-5.62,21.1-14.79,28.32Z"/>
      <path class="cls-3" d="M249.49,334.62c3.42-6.24,9.88-8.81,15.25-12.69-3.95,5.6-6.76,12.57-15.25,12.69Z"/>
      <path class="cls-3" d="M137.73,239.42c1.04-5.14,3.48-9.37,7.96-12.29,1.56,2.45,2.87,5.11,4.73,7.32,4.24,5.04,10.14,4.89,14.91,2.13,5.09-2.94,6.97-9.12,4.84-14.48-2.94-7.41-10.34-6.81-16.93-6.88,7.82-4.54,15.63-9.08,23.45-13.63-.9,9.29,2.37,16.29,11.3,19.95,4.65,1.9,9.57,2.41,12.63-2.42,4.93-7.76,4.7-15.64-1.19-23.03,19.98-7.52,48.39,3.87,56.41,30.16-2.12-.34-4.36-.36-6.34-1.09-5.3-1.95-9.57-.5-12.25,4.13-2.67,4.62-1.35,9.06,2.19,13,8.08,8.97,14.79,4.02,21.46-1.96,2.36,7.38-.25,14.31-1.96,21.32-2.7-8.22-9.39-11.38-16.82-10-9.18,1.71-5.08,10.36-6.22,16.2-2.82.7-5.45.52-7.6-1.75-.02-4.74-.16-9.48-.02-14.22.21-7.29-3.31-12.76-8.82-16.77-13.52-9.84-25.82-4.8-38.24,3.14-10.17,6.51-12.19,15.85-11.01,26.54,1.14,10.28,10.79,18.95,23.66,21.11,7.7,1.29,15.62,1.61,19.02-8.01,5.42,1.91,10.85,3.81,16.28,5.72-9.62,2.77-10.38,5.5-4.64,12.83,2.52,3.22,6.39,3.04,9.03,5.39-3.67,4.48-8.62,6.74-14.08,8.15,3.56-8.35-.44-13.79-7.12-18.02-4.05-2.56-8.51-2.85-11.93.77-5.94,6.3-5.03,13.01-.1,19.59.36.49.17,1.39.23,2.11-6.98,1.31-13.96,3.17-20.98.16,1.29-1.22,2.41-2.74,3.9-3.62,6.19-3.66,9.99-8.56,4.68-15.02-4.28-5.2-9.76-11.12-17.53-5.09-6.54,5.08-7.74,11.23-1.67,17.79,1.46,1.58,3.28,2.99,3.1,5.51-31.55-7.17-46.93-29.24-39.13-56.14.61.37,1.34.64,1.82,1.14,4.25,4.48,9.22,7.85,15.21,4.28,4.67-2.78,5.8-8.11,5.21-13.38-.84-7.45-6.07-8.86-12.47-8.78-1.65.02-3.31-1.22-4.97-1.88ZM226.84,225.28c7.42-.29,12.52-3.49,13.92-10.39,1.12-5.49-9-15.32-15.11-14.79-7.04.61-11.67,5.07-11.67,12.06,0,8.12,5.51,12.09,12.86,13.12ZM150.59,272.49c-6.54-.12-12.78,5.09-12.85,10.73-.06,4.51,9.9,14.44,14.78,14.2,6.61-.32,10.93-3.73,11.36-10.71.46-7.39-5.94-14.08-13.29-14.22Z"/>
      <path class="cls-4" d="M212.89,277.9c-3.4,9.62-11.32,9.31-19.02,8.01-12.86-2.16-22.52-10.83-23.66-21.11-1.19-10.7.84-20.04,11.01-26.54,12.41-7.94,24.71-12.98,38.24-3.14,5.51,4.01,9.03,9.48,8.82,16.77-.13,4.73,0,9.48.02,14.22-6,.94-11.57-1.35-17.02-3.05-4.9-1.53-8.12-2.22-10.03,3.8-2.01,6.34.97,8.53,6.42,9.52,1.77.32,3.48,1,5.22,1.52Z"/>
      <path class="cls-4" d="M199.42,196.09c5.89,7.39,6.12,15.27,1.19,23.03-3.06,4.82-7.99,4.32-12.63,2.42-8.93-3.66-12.2-10.65-11.3-19.95,5.42-10.75,14.37-6.92,22.74-5.5Z"/>
      <path class="cls-4" d="M172.06,314.18c.17-2.52-1.64-3.92-3.1-5.51-6.07-6.56-4.87-12.71,1.67-17.79,7.77-6.03,13.25-.11,17.53,5.09,5.31,6.46,1.51,11.36-4.68,15.02-1.49.88-2.61,2.4-3.9,3.62-2.5-.14-5.01-.29-7.52-.43Z"/>
      <path class="cls-4" d="M200.56,314.45c-.07-.71.13-1.62-.23-2.11-4.93-6.58-5.84-13.3.1-19.59,3.42-3.62,7.89-3.33,11.93-.77,6.68,4.22,10.68,9.67,7.12,18.02-6.02,2.67-11.94,5.81-18.92,4.45Z"/>
      <path class="cls-4" d="M153.22,215.22c6.59.06,13.99-.53,16.93,6.88,2.13,5.36.25,11.54-4.84,14.48-4.77,2.76-10.67,2.91-14.91-2.13-1.85-2.21-3.17-4.87-4.73-7.32,1.55-4.58,2.46-9.56,7.54-11.91Z"/>
      <path class="cls-4" d="M260.89,240.33c-6.66,5.97-13.37,10.93-21.46,1.96-3.55-3.94-4.86-8.38-2.19-13,2.68-4.63,6.95-6.08,12.25-4.13,1.98.73,4.22.75,6.34,1.09,4.21,3.78,5.21,8.73,5.07,14.08Z"/>
      <path class="cls-4" d="M137.73,239.42c1.66.66,3.32,1.9,4.97,1.88,6.4-.08,11.64,1.33,12.47,8.78.59,5.27-.54,10.6-5.21,13.38-6,3.58-10.97.2-15.21-4.28-.48-.5-1.21-.77-1.82-1.14-.26-6.68.2-13.19,4.8-18.62Z"/>
      <path class="cls-4" d="M235.9,267.86c1.14-5.84-2.96-14.49,6.22-16.2,7.43-1.38,14.12,1.78,16.82,10-.18,9.73-5.76,11.32-13.79,9.09-3.11-.86-6.17-1.92-9.25-2.89Z"/>
      <path class="cls-4" d="M233.57,301.85c-2.65-2.35-6.52-2.18-9.03-5.39-5.74-7.33-4.98-10.06,4.64-12.83,5.73.53,11.03,2.22,15.79,5.86-3.14,4.8-5.95,9.78-11.4,12.36Z"/>
      <path class="cls-4" d="M226.84,225.28c-7.35-1.04-12.85-5-12.86-13.12,0-6.99,4.63-11.45,11.67-12.06,6.11-.53,16.23,9.3,15.11,14.79-1.4,6.9-6.5,10.1-13.92,10.39Z"/>
      <path class="cls-4" d="M150.59,272.49c7.35.14,13.75,6.83,13.29,14.22-.43,6.98-4.76,10.39-11.36,10.71-4.88.24-14.84-9.69-14.78-14.2.07-5.64,6.32-10.85,12.85-10.73Z"/>
    </g>
  </g>
</svg>