<?xml version="1.0" encoding="UTF-8"?>
<svg id="Layer_2" data-name="Layer 2" xmlns="http://www.w3.org/2000/svg" viewBox="0 0 388 351.12">
  <defs>
    <style>
      .cls-1 {
        fill: #e93026;
      }

      .cls-1, .cls-2, .cls-3, .cls-4 {
        stroke-width: 0px;
      }

      .cls-2 {
        fill: #4272b6;
      }

      .cls-3 {
        fill: #f2efed;
      }

      .cls-4 {
        fill: #222525;
      }
    </style>
  </defs>
  <g id="Layer_1-2" data-name="Layer 1">
    <g>
      <path class="cls-1" d="M296.65,288.04c-8.7,20-23.27,34.33-42.68,43.85-46.35,22.74-95.22,21.97-144.54,14.65-20.11-2.98-38.01-12.67-53.88-24.76-11.21-8.54-17.54-22.11-20.68-35.71-7.99-34.58-1.71-67.54,15.1-98.45,15.33-28.18,31.52-55.86,52.1-80.68,3.29-3.97,4.59-7.99,2.78-13.76-2.7-8.59-5.38-17.12-8.98-25.38-1.95-4.48-3.54-9.11-.28-13.77,3.35.56,4.75-5.55,8.8-2.57,6.18,8.81,8.36,19.37,12.65,29.01,1.8,4.05,3.71,5.79,8.69,5.73,23.92-.29,47.84-.05,71.76.31,5.37.08,7.55-2.61,9.45-6.95,3.7-8.45,4.54-18.01,10.06-25.74,7.11,1.11,11.91,4.3,11.16,12.46-3.27,10.45-6.27,21-9.97,31.29-1.4,3.91-1.43,6.72,1.19,9.97,5.36,6.66,10.42,13.56,15.6,20.37.21,1.75,1.32,2.46,2.96,2.56,11.62,17.98,23.89,35.58,34.67,54.06,9.49,16.27,19.52,32.51,23.62,51.36-1.85,11.11.96,21.61,4.2,32.06.96,2.32.45,4.56-.35,6.79-10.54,1.27-10.7,1.67-4.46,10.7.52.75.69,1.73,1.03,2.61ZM164.18,310.75c53.55,2.67,84.66-39.12,82.3-79.75-2.89-49.73-32.18-87.77-86.25-84.52-38.91,2.34-80.04,22.89-73.79,95.88,2.48,28.99,30.73,73.98,77.74,68.38Z"/>
      <path class="cls-2" d="M104.39,51.46c-4.05-2.99-5.45,3.13-8.8,2.57-13.06,2-20.58,9.95-21.07,22.26-.52,13.25,4.21,25.61,6.65,38.35,2.2,11.5.82,14.02-10.15,17.6-18.7,6.1-37.36,12.17-57.11,14.2-6.62.68-9.53-1.15-9.19-7.78,3.69,1.44,5.49.51,5.91-3.77,1.35-13.8,10.12-20.48,22.8-23.67,11.24-2.83,19.77.69,26.79,9.51,1.22,1.54,3.13,4.7,5.54,2.74,2.59-2.1,1.09-4.89-1.15-6.81-1.7-1.46-2.48-3.48-4.49-4.98-21.03-15.67-51.57-3.43-56.17,22.77-6.5-25.71-5.27-50.82,5.63-75.24,6.61-14.8,21.46-20.18,33.88-26.79,19.6-10.43,40.07-20.29,62.22-24.41,48.67-9.05,97.47-13.81,145.23,4.58,15.55,5.99,30.39,13.79,45.6,20.67,18.97,8.58,32.65,20.87,31.38,43.9-6.18,6.11-6.13,16.26.12,24.52-.17,5.44-.35,10.87-.52,16.31-1.63-.27-2.85-.55-3.61-2.6-5.71-15.5-15.74-27.53-32.6-29.51-19.18-2.25-38.83-2.43-51.43,16.92-.2-7.56-.16-15.14-.66-22.68-.48-7.17-.78-14.61-7.64-19.34,1.91-3.48,6.03-7.26,1.52-10.89-3.81-3.06-8.6-6.64-13.77-1.32-.83.85-2.27,1.1-3.43,1.62-21.38-3.63-42.8-6.87-64.6-6.04-15.91.61-31.84,1.14-46.88,7.32Z"/>
      <path class="cls-4" d="M328.03,101.67c-6.25-8.26-6.3-18.41-.12-24.52,13.34-2.55,17.89,11.32,28.09,15.07,11.14,4.09,19.88,12.33,27.03,21.71,2.71,3.55,5.29,8.77,4.82,12.87-1.62,14.17.54,28.77-4.56,42.56-2.99,8.08-1.61,16.36.4,24.19,1.84,7.14,5.14,13.78,1.13,21.15-1.7,3.12.78,5.78,1.63,8.54,2.81,9.07,2.35,17.17-6.03,23.31-1.05.77-2.65,1.8-2.7,2.77-.67,13.76-9.85,20.8-20.58,26.77-2.31,1.28-5.09,4.86-6.38,4.32-10.56-4.38-20.8,4.36-30.81.63-5.67-2.11-10.07-3.89-14.4,1.82-2.17,2.87-7.36,1.11-8.91,5.23-.32-.95-.5-1.94-1.01-2.69-6.24-9.03-6.08-9.43,4.46-10.7.9,1.84-1.29,5.36,2.3,5.51,1.92.08,2.93-2.36,3.36-4.42.84-4.02.25-4.92-5.31-7.88-3.24-10.44-6.05-20.95-4.21-32.07-.11,6.69,6.45,3.1,8.73,5.62,5.16,5.69,9.09,12.28,8.62,20.32-.5,8.65,6.07,11.1,11.78,14.34,1.37.78,3.28,1.01,4.42-.8,1.11-1.77.09-3.17-1.06-4.4-4.47-4.77-6.33-10.7-8.32-16.79-2.34-7.12,1.87-10.72,6.55-13.54,5.5-3.32,6.78,2.95,9.98,5.83,1.01-4.3,4.49-6.1,7.7-8.19,1.63-1.06,4.07-2.07,2.76-4.48-3.67-6.77.19-10.68,5.04-14.2,2.07-1.5,4.11-2.48.75-4.8-4.59-3.16-3.32-6.79-.28-10.14,3.41-3.74,7.24-5.98,12.19-2.31,4.68,3.47,9.45,6.81,14.59,10.5,1.48-12.02-.08-13.89-10.14-14.23-2.62-.09-5.19-1.11-7.81-1.55-7.12-1.18-12.26-4.56-11.13-12.5.88-6.16,8.14-7.71,16.49-4.22,1.94.81,3.65,3.57,6.1,1.18.49-.48.49-1.9.18-2.67-1.04-2.57-3.28-2.88-5.78-2.9-5.38-.04-10.64-1.1-15.46-3.45-10.06-4.93-10.57-8.21-2.46-15.75,2.43-2.26,6.02-3.95,3.91-7.9-3.78-7.07-2.64-12.87,3.7-17.54,7.14-5.27,10.53,2.54,15.52,4.74.89.39,1.53,1.3,2.38,1.81,2.14,1.28,3.36,5.38,6.2,3.79,2.73-1.53,2.37-5.3,1.99-8.3-.25-1.96-.75-3.96-1.54-5.77-6.94-15.86-21.35-23.19-35.48-30.77-.94-.5-3.09-.43-3.59.22-3.9,5.04-9.94,2.85-14.75,4.65ZM375.86,245.18c6.99-4.95,7.92-10.71,5.6-16.68-3.95-10.18-13.78-4.78-20.65-7.62,6.75,6.78,12.42,13.86,15.05,24.3ZM339.17,246.5c.77,9.23,2.09,15.44.66,21.75-.99,4.38,2.34,5.49,5.49,6.83,3.28,1.39,5.77.63,7.83-2.1,1.4-1.86,3.22-3.93.59-5.95-6.15-4.74-8.57-12.16-14.57-20.53ZM361.97,156.59c4.65,3.56,8.84,6.61,12.84,9.9,1.84,1.52,3.3,2.28,4.69-.25,1.91-3.47,1.8-7.1.21-10.57-1.73-3.78-4.59-1.02-6.92-.77-3.46.37-6.88,1.06-10.82,1.69ZM353.05,228.26c1.65,9.27,6.04,13.98,14.69,16.43-1.64-8.66-6.45-13.02-14.69-16.43ZM359.77,137.73c2.1,9.98,7.76,11.68,15.01,10.87-4.13-4.03-7.58-8.96-15.01-10.87ZM364.4,267.36c4.69-5.77,5.42-10.48,5.05-15.39-.21-2.8-2.17-3.78-4.91-3.35-3.64.56-1.28,2.67-1.16,4.23.32,4.18.59,8.36,1.01,14.51ZM365.54,169.43c-6.15-6.6-6.6-6.77-13.66-5.21q5.54,4.15,13.66,5.21ZM371.07,216.97c-2.98-3.2-5.77-6.9-10.82-6.98-.31,0-1.05,1.17-.91,1.51,2.11,4.97,6.94,5.02,11.73,5.47Z"/>
      <path class="cls-4" d="M3.97,134.44c4.6-26.2,35.14-38.44,56.17-22.77,2.01,1.5,2.79,3.51,4.49,4.98,2.24,1.92,3.74,4.71,1.15,6.81-2.42,1.96-4.32-1.2-5.54-2.74-7.02-8.81-15.55-12.34-26.79-9.51-12.68,3.2-21.46,9.87-22.8,23.67-.42,4.27-2.22,5.21-5.91,3.77-.26-1.41-.51-2.81-.77-4.21Z"/>
      <path class="cls-4" d="M164.18,310.75c-47.01,5.6-75.26-39.4-77.74-68.38-6.25-72.99,34.89-93.54,73.79-95.88,54.07-3.26,83.36,34.79,86.25,84.52,2.36,40.63-28.75,82.42-82.3,79.75ZM226.72,222.77c.28-.54.16-.96-.35-1.23-8.26-5.55-15.46-1.21-17.97,10.79-1.29,6.17,1.07,10.45,6.88,12.52,5.83,2.07,10.58,1.14,12.21-5.88,6.22-5.47,5.91-12.29-.71-16l-.07-.19ZM220.19,205.85c4.83-7.98.6-12.11-6.39-15.07-8.51-3.57-12.29,1.31-15.03,8.3-2.94,7.5.31,12.77,7.05,14.68,6.34,1.79,13.71,2.16,14.37-7.91ZM138.89,182.11c.95,1.24,1.83,2.54,2.85,3.72,6.77,7.81,13.58,9.02,19.84,3.58,6.05-5.26,7.85-17.32,2.13-22.77-6.24-5.95-12.74-1.6-18.94,1.89-5.79,3.27-5.46,8.55-5.6,13.86-4.69-1.94-5.79-10.24-13.15-7.46-6.32,2.39-11.94,6.38-10.57,13.58,1.35,7.12,6.74,12.41,14.64,12.08,8.31-.35,9.8-6.46,9.04-13.54-.18-1.64-.16-3.29-.23-4.94ZM197.16,238.65c-.39-23.16-12.41-38.02-30.65-37.91-16.83.1-32.35,14.63-32.27,30.23.09,17.73,18.88,33.9,38.86,33.62,11.85-.17,26.23-11.5,24.06-25.93ZM135.32,298.16c8.97.19,16.34-5.78,16.27-12.94-.06-6.39-7.98-14.55-14.14-14.56-6.76-.01-14.99,8.73-15.09,16.01-.12,9.09,6.38,10.51,12.95,11.49ZM199.61,181.02c.08-8.47-8.02-17.29-14.84-17.21-6.19.08-12.3,7.48-12.1,14.65.2,7.26,7.96,14.04,16.64,13.8,7.61-.21,9.46-6,10.3-11.25ZM94.94,248.83c-.78,7.39,2.43,12.66,10.48,13.39,6.81.61,13.71-7.87,13.89-15.59.18-7.63-3.81-12.24-10.71-13.42-5.42-.93-13.66,8.98-13.65,15.63ZM107.88,230.58c4.79.78,9.65-.35,11.95-5.76,2.74-6.45,2.43-13.19-1.22-19.18-3.82-6.29-10.24-5.93-14.27.32-3.09,4.8-2.81,10.59-4.69,15.73-2.78,7.6.62,9.77,8.22,8.89ZM209.5,283.56c-1.05-6.22-3.4-11.95-11.06-12.87-6.01-.72-13.88,6.44-13.17,12.39.79,6.64,5.56,10.98,12,11.17,6.2.18,11.8-2.41,12.23-10.68ZM169.05,300.39c6.92.07,11.16-3.54,10.55-10.28-.59-6.44-4.03-12.84-11.15-13.21-7.17-.37-11.53,4.47-11.51,12.15.02,8.01,4.56,11.3,12.11,11.35ZM225.42,262.12c.03-8.06-5.74-10.25-11.27-10.86-6.93-.76-9.36,5.01-9.18,10.59.22,6.92,4.04,12.3,11.58,12.74,9.5.56,6.68-8.07,8.87-12.46Z"/>
      <path class="cls-2" d="M327.64,121.91c.1,13.09-3,17.07-15.37,15.88-19.85-1.91-39.93-1.95-59.49-6.48-4.92-1.14-9.84-1.48-14.84-.83-1.64-.1-2.74-.81-2.96-2.56,4.17-6.34,1.62-14.12,4.45-20.75,4.03,3.46,6.31.2,7.67-2.64,1.99-4.17,5.09-7.5,8.87-9.03,26.61-10.81,50.15-7.69,63.18,21.38,2.35,5.25,4.56,5.2,8.48,5.03Z"/>
      <path class="cls-4" d="M231.55,60.77c-1.13,1.84-2.26,3.68-3.39,5.52.75-8.16-4.05-11.35-11.16-12.46-.38-1.22-.75-2.43-1.13-3.65,1.16-.52,2.6-.77,3.43-1.62,5.17-5.32,9.97-1.75,13.77,1.32,4.51,3.63.39,7.41-1.52,10.89Z"/>
      <path class="cls-4" d="M239.44,107.17c.14-1.47.28-2.93.42-4.39,12.61-19.34,32.25-19.17,51.43-16.91,16.86,1.98,26.89,14.01,32.6,29.51.76,2.05,1.98,2.33,3.61,2.6.05,1.31.09,2.62.14,3.93-3.92.16-6.13.22-8.48-5.03-13.03-29.08-36.57-32.19-63.18-21.38-3.78,1.53-6.88,4.86-8.87,9.03-1.36,2.84-3.64,6.11-7.67,2.64Z"/>
      <path class="cls-3" d="M197.16,238.65c2.17,14.43-12.21,25.76-24.06,25.93-19.98.28-38.78-15.88-38.86-33.62-.08-15.59,15.44-30.13,32.27-30.23,18.25-.11,30.26,14.75,30.65,37.91Z"/>
      <path class="cls-3" d="M139.17,182.38c.14-5.31-.19-10.59,5.6-13.86,6.2-3.49,12.69-7.84,18.94-1.89,5.72,5.45,3.93,17.51-2.13,22.77-6.26,5.44-13.07,4.23-19.84-3.58-1.02-1.18-1.9-2.47-2.85-3.72l.28.28Z"/>
      <path class="cls-3" d="M135.32,298.16c-6.58-.98-13.08-2.4-12.95-11.49.1-7.27,8.32-16.02,15.09-16.01,6.16.01,14.08,8.17,14.14,14.56.07,7.16-7.3,13.13-16.27,12.94Z"/>
      <path class="cls-3" d="M199.61,181.02c-.84,5.25-2.69,11.04-10.3,11.25-8.68.24-16.44-6.54-16.64-13.8-.2-7.17,5.91-14.57,12.1-14.65,6.82-.08,14.92,8.74,14.84,17.21Z"/>
      <path class="cls-3" d="M94.94,248.83c-.01-6.65,8.23-16.56,13.65-15.63,6.9,1.18,10.89,5.8,10.71,13.42-.18,7.72-7.07,16.21-13.89,15.59-8.05-.72-11.26-6-10.48-13.39Z"/>
      <path class="cls-3" d="M107.88,230.58c-7.6.88-11-1.29-8.22-8.89,1.88-5.14,1.6-10.92,4.69-15.73,4.02-6.25,10.44-6.61,14.27-.32,3.64,5.99,3.95,12.73,1.22,19.18-2.3,5.41-7.16,6.54-11.95,5.76Z"/>
      <path class="cls-3" d="M138.89,182.11c.07,1.65.05,3.3.23,4.94.77,7.08-.72,13.19-9.04,13.54-7.9.33-13.29-4.96-14.64-12.08-1.36-7.21,4.25-11.2,10.57-13.58,7.36-2.78,8.46,5.52,13.15,7.46,0,0-.28-.28-.28-.28Z"/>
      <path class="cls-3" d="M209.5,283.56c-.43,8.28-6.02,10.87-12.23,10.68-6.44-.19-11.21-4.53-12-11.17-.71-5.95,7.16-13.11,13.17-12.39,7.65.92,10,6.65,11.06,12.87Z"/>
      <path class="cls-3" d="M169.05,300.39c-7.55-.05-12.1-3.34-12.11-11.35-.02-7.67,4.35-12.52,11.51-12.15,7.12.37,10.56,6.77,11.15,13.21.61,6.74-3.63,10.36-10.55,10.28Z"/>
      <path class="cls-3" d="M220.19,205.85c-.67,10.07-8.04,9.7-14.37,7.91-6.74-1.91-9.99-7.17-7.05-14.68,2.74-6.99,6.52-11.87,15.03-8.3,1.22,5.41,3.59,10.33,6.39,15.07Z"/>
      <path class="cls-3" d="M227.49,238.97c-1.63,7.02-6.38,7.94-12.21,5.88-5.81-2.06-8.18-6.34-6.88-12.52,2.51-12,9.71-16.34,17.96-10.8,0-.01-.22.71-.22.71l.58.54s.07.19.07.19c.24,5.33.47,10.67.71,16.01Z"/>
      <path class="cls-3" d="M225.42,262.12c-2.19,4.4.62,13.02-8.87,12.46-7.54-.44-11.36-5.82-11.58-12.74-.18-5.57,2.25-11.35,9.18-10.59,5.53.61,11.31,2.81,11.27,10.86Z"/>
      <path class="cls-1" d="M220.19,205.85c-2.8-4.74-5.17-9.66-6.39-15.07,6.99,2.96,11.22,7.09,6.39,15.07Z"/>
      <path class="cls-1" d="M227.49,238.97c-.24-5.34-.47-10.67-.71-16.01,6.62,3.71,6.92,10.54.71,16.01Z"/>
      <path class="cls-1" d="M226.72,222.77l-.58-.54s.21-.72.22-.71c.52.29.63.7.36,1.25Z"/>
    </g>
  </g>
</svg>